<?xml version="1.0" encoding="UTF-8" standalone="no"?>
<!-- Created with Inkscape (http://www.inkscape.org/) -->

<svg
   width="183.23718mm"
   height="24.725002mm"
   viewBox="0 0 183.23718 24.725002"
   version="1.1"
   id="svg1"
   xmlns="http://www.w3.org/2000/svg"
   xmlns:svg="http://www.w3.org/2000/svg">
  <defs
     id="defs1" />
  <g
     id="layer1"
     transform="translate(-12.449925,-88.466129)">
    <g
       id="学"
       transform="matrix(0.0833359,0,0,0.0833359,41.20994,91.341709)"
       style="fill:#ffffff;fill-opacity:1">
	<path
   class="st0"
   d="m 1050.1,34.2 c -3.3,1 -4.7,5.5 -5.1,6.9 -1.8,5.6 0,11 0.7,12.8 0.7,1.6 1.3,3.3 1.9,5 1.1,4.1 0.4,5.2 1.5,6.6 1.9,2.7 7.4,3.5 10.5,1.4 1.9,-1.3 1.6,-3 4.8,-10.3 1.5,-3.4 2.1,-5.2 3.7,-5.7 1.7,-0.5 3.5,0.1 4.6,1.4 1.6,2 0.1,3.9 1.2,6.3 1.9,3.9 8,2.6 8.6,5 0.7,2.9 -7.5,8.1 -11.9,10.9 -0.8,0.5 -1.7,1.1 -2.4,1.7 -2.2,2 -4.6,4 -7,5.7 -10.2,7.6 -20.4,14.1 -20.4,14.1 -4.2,2.6 -6.9,4.2 -8.3,7.7 -1,2.8 -1.1,5.8 -0.3,8.7 0.7,3 2.5,5.7 5,7.5 2.9,1.9 7,2.8 10.4,1.3 2.6,-1.2 3.2,-3.1 5.9,-6.8 3,-3.9 6.5,-7.5 10.4,-10.5 4.3,-3.5 8.2,-4.6 15.9,-7.1 4.3,-1.3 6.4,-2 47.7,-11.9 1.8,-0.4 6.5,-1.6 7.7,0.2 0.8,1.2 -0.4,3.4 -0.8,4 -1.4,2.5 -3.2,2.8 -6.3,5.5 -2.5,2.2 -3.9,3.4 -3.7,4.5 0.5,2.6 10.6,2.3 19.9,2 4,-0.1 9.3,-0.5 13.9,-3.3 1,-0.7 2,-1.4 2.9,-2.2 1.7,-1.5 5.2,-4.7 5.3,-7.7 0.1,-5.3 -10.5,-10.2 -17.8,-11.6 -3.1,-0.6 -6.3,-0.9 -9.5,-1 -3.3,-0.3 -6.7,-0.3 -10,-0.1 -3.2,0.3 -4.1,0.7 -16.8,3.9 -4.6,1.2 -4.5,1.1 -7.6,1.9 -7.1,1.8 -10.6,2.7 -12.4,3.4 -6,2.2 -9,4.4 -9.6,3.6 -0.6,-0.8 1.8,-3.9 2.5,-4.9 3.3,-4.1 8.5,-9 21.3,-15.3 6.2,-3 9.3,-4.5 13,-5.7 6.1,-1.8 8.6,-1.5 10.5,-4 1.6,-2.1 1.6,-5.3 1.7,-11.8 0,-4.5 0,-6.8 -0.6,-8.2 -2.4,-5 -8.7,-6.8 -13,-8 -2.2,-0.6 -4.5,-1 -6.8,-1.1 -2.8,-0.1 -6.6,-0.3 -10.2,1.3 -5.4,2.4 -4.9,6.2 -9.7,7.4 -2.7,0.6 -5.5,0.2 -8,-0.9 -3.8,-1.7 -3.5,-3.8 -6.7,-5 -3.4,-1.2 -7.8,0.1 -10.4,2.4 -4.6,4.1 -4,11.4 -5,11.3 -1,-0.1 -0.3,-7.9 -4.6,-10.5 -0.8,-0.5 -1.7,-0.7 -2.6,-0.8 -1.3,-0.4 -2.7,-0.4 -4,0 z"
   id="path1"
   style="fill:#ffffff;fill-opacity:1" />

	<path
   class="st0"
   d="m 1059,127.7 c -0.6,1.6 0.4,3.8 1.9,4.9 0.8,0.5 1.4,0.6 4.6,0.8 2.9,0.2 4.3,0.3 5,0.3 10,-1 11.8,-0.9 12.1,-0.2 0.3,0.7 -1.1,1.3 -2.3,3.8 -0.6,1.4 -1,3 -1.1,4.6 -0.4,3.5 -0.8,7.2 1,10.5 2,3.7 4.6,3.3 5.4,6.5 0.4,2 -0.5,4 -1.6,6.5 -0.5,1.4 -1.3,2.6 -2.3,3.7 -1.4,1.2 -3.1,2 -4.9,2.2 -8,1.9 -5.5,1.7 -10,2.5 -5.3,1 -6.5,0.8 -10,1.9 -2.6,0.9 -4,1.3 -5.3,2.5 -2.9,2.7 -4.4,8 -2.6,10.1 1.1,1.2 3.5,1.5 20.6,-3.7 11,-3.4 14.6,-4.9 16.5,-3 1.5,1.5 0,3.3 0,12.5 0,6.5 0.5,8 -0.8,9.5 -1.1,1.3 -2.8,1.8 -12,1.8 -9.2,0 -10.4,-0.4 -10.7,0.2 -1.5,3.3 30.6,26.2 39.3,18.9 1.9,-1.6 1.8,-8.3 1.4,-21.8 -0.1,-4.5 -2.7,-23.4 0.2,-25.5 0.7,-0.5 1.4,-0.9 2.1,-1.2 0.9,-0.4 1.8,-0.6 2.8,-0.8 2.5,-0.2 5,-0.1 7.4,0.5 8.6,0.5 12.9,0.8 15.6,-0.4 1.3,-0.6 5.2,-2.4 6.3,-6.5 0.7,-3.1 -0.2,-6.3 -2.4,-8.5 -2,-1.9 -4.4,-2 -9.2,-2.3 -2.9,-0.2 -5.8,0.1 -8.6,0.7 -3.1,0.7 -3.3,1.3 -7.3,2.4 -4.9,1.4 -8.7,2.6 -9.9,1 -0.9,-1.2 0.3,-2.2 0.1,-7.8 0.1,-1.5 -0.4,-3 -1.2,-4.3 -0.5,-0.6 -1,-1.1 -1.5,-1.5 -1.5,-1.9 -2,-4.4 -1.3,-6.7 1,-2.7 4,-2.4 10.6,-5.9 4,-2.1 6.4,-3.5 8.1,-6.4 0.6,-1 2.9,-4.7 1.5,-8 -1.4,-3.3 -5.8,-4.2 -8.9,-4.9 -2.1,-0.4 -2.9,-0.3 -10.1,0 -10.1,0.4 -11.9,0.2 -15,1.6 -1.5,0.9 -3,1.6 -4.6,2.3 -2.5,0.9 -5.1,1.7 -7.7,2.3 -2.4,0.6 -4.7,1.3 -7,2.2 -3.2,1.4 -3.9,2 -4.2,2.7 z"
   id="path2"
   style="fill:#ffffff;fill-opacity:1" />

</g>
    <path
       id="中"
       class="st0"
       d="m 124.52917,97.625236 c -0.0167,-0.025 -0.1,-0.09167 -0.25833,-0.225007 -0.0333,-0.025 -0.0667,-0.05833 -0.10001,-0.09167 -0.10833,-0.11667 -0.10833,-0.216673 -0.15,-0.283342 -0.0667,-0.108336 -0.28335,-0.11667 -0.70002,-0.133337 -0.26668,-0.01667 -0.53336,0 -0.7917,0.05 -0.025,0 -0.0167,0 -0.23334,0.05833 -0.275,0.05833 -0.55001,0.133337 -0.82502,0.225007 -0.35835,0.133337 -0.40001,0.225007 -0.81669,0.358344 -0.20834,0.06667 -0.35001,0.08334 -0.40835,0.01667 -0.0583,-0.06667 0.0167,-0.11667 0.025,-0.300009 0.008,-0.158338 -0.0167,-0.32501 -0.0833,-0.475015 -0.05,-0.100003 -0.11667,-0.191672 -0.20834,-0.266675 -0.31667,-0.300009 -0.87502,-0.550017 -1.03336,-0.383345 -0.05,0.05 -0.0417,0.133338 -0.0333,0.241674 0.025,0.491682 0.025,0.983364 -0.008,1.475046 -0.0167,0.300009 -0.0167,0.458347 -0.075,0.55835 -0.0917,0.166672 -0.20001,0.191673 -0.8167,0.525016 -0.34167,0.183339 -0.44168,0.250008 -0.51668,0.200007 -0.0917,-0.05833 -0.0583,-0.233341 -0.0333,-0.583352 0.0167,-0.275008 0.008,-0.550017 0.0167,-0.825025 0.0167,-0.466681 0.0417,-1.316707 -0.23334,-1.433378 -0.27501,-0.11667 -0.95837,0.441681 -1.16671,1.150036 -0.21667,0.725022 0.13334,1.266706 -0.2,2.075064 -0.0583,0.11667 -0.10834,0.23334 -0.14167,0.358344 -0.0417,0.150001 -0.17501,0.666681 0.075,1.166701 0.05,0.10834 0.11667,0.20001 0.20001,0.27501 0.33334,0.28334 0.81669,0.13334 0.85836,0.125 0.0417,-0.008 0.47501,-0.15833 0.56668,-0.49168 0,-0.025 0.008,-0.0417 0.008,-0.0667 l 0.0167,-0.25001 c 0,-0.0833 0.0667,-0.65001 0.47502,-0.991692 0.11666,-0.100003 0.11666,-0.025 0.33334,-0.200006 0.50001,-0.400012 0.56668,-0.516682 0.64168,-0.483348 0.0917,0.03333 0.0417,0.250008 0.0417,0.850026 0,0.62502 0.0583,0.80002 -0.0917,0.95836 -0.075,0.0833 -0.13333,0.075 -0.50001,0.20834 -0.50835,0.17501 -0.75836,0.26668 -0.76669,0.37501 -0.0167,0.18334 0.51668,0.53335 0.96669,0.45835 0.11667,-0.0167 0.22501,-0.0667 0.30001,-0.008 0.14167,0.10001 0.075,0.41668 0.05,0.51669 -0.15834,0.79169 0.17501,0.95836 -0.0167,3.11676 -0.125,1.38337 -0.30834,1.81672 -0.0583,1.97506 0.25834,0.16667 0.82502,-0.075 0.97503,-0.43335 0.0417,-0.1 0.05,-0.19167 -0.0583,-0.79169 -0.0667,-0.38334 -0.11667,-0.65835 -0.13333,-0.73336 -0.10001,-0.52501 0.008,-0.60001 -0.008,-1.47504 -0.008,-0.35834 -0.0333,-0.9667 -0.025,-1.66672 -0.008,-0.24167 0.0667,-0.48335 0.20001,-0.67502 0.075,-0.1 0.175,-0.18334 0.28334,-0.25001 0.53335,-0.33334 0.89169,-0.125 1.58338,-0.40835 0.18334,-0.075 0.35834,-0.16667 0.53335,-0.26667 0.22501,-0.125 0.44168,-0.26667 0.65002,-0.41668 0.27501,-0.2 0.25,-0.20834 0.52501,-0.408344 0.42502,-0.308343 0.45002,-0.258341 0.62502,-0.433346 0.18334,-0.191673 0.32501,-0.408347 0.43335,-0.65002 0.0333,-0.075 0.0667,-0.166672 0.14167,-0.366679 0.10834,-0.300009 0.11667,-0.358344 0.11667,-0.408345 0,-0.175006 -0.05,-0.32501 -0.15,-0.441681 z m -2.25007,0.991697 c -0.1,0.166672 -0.225,0.233341 -0.38334,0.350011 -0.225,0.166672 -0.15834,0.166672 -0.65002,0.666687 -0.45834,0.458349 -0.65002,0.583349 -0.71669,0.625019 -0.25,0.15834 -0.51668,0.33334 -0.67502,0.23334 -0.0667,-0.0417 -0.13333,-0.14167 -0.1,-0.683354 0.0417,-0.800024 0.0667,-1.200037 0.33334,-1.41671 0.16667,-0.133337 0.17501,-0.0083 0.81669,-0.166672 0.37502,-0.11667 0.75836,-0.183338 1.15004,-0.200006 0.1,0 0.225,0 0.29167,0.075 0.10834,0.125003 0.025,0.366678 -0.0667,0.516682 z"
       style="fill:#ffffff;fill-opacity:1;stroke-width:0.0833358" />
    <g
       id="宫"
       transform="matrix(0.0833359,0,0,0.0833359,41.20994,91.341709)"
       style="fill:#ffffff;fill-opacity:1">
	<path
   class="st0"
   d="m 722.7,21.7 c -0.2,0.7 0.6,2 2.3,4.7 1.7,2.7 1.9,2.5 2.4,3.5 1.3,2.7 0.6,5.4 -0.4,9 -1,3.6 -1.5,5.6 -3.2,7.3 -0.7,0.7 -1.8,1.5 -7.8,2.7 -5.5,1.1 -7.7,1.1 -13.2,2.4 -4.1,0.9 -5.2,1.5 -6.2,2.1 -2.2,1.4 -3.3,3.2 -5.2,6 -1.7,2.5 -1.6,2.9 -3.8,6.7 -2,3.4 -3.7,6 -4.7,7.4 -1.5,2.3 -3.2,4.6 -5,6.7 -3.2,3.6 -4.4,4 -6.1,6.9 -1,1.7 -1.7,3.5 -2.2,5.3 -0.7,2.6 -1,5.2 -0.9,7.8 0,3.2 -0.1,4.8 0.5,6.3 0.8,1.8 1.5,2 4.6,5.5 2.9,3.4 2.2,3.2 3.4,4.2 3.7,3.2 8.7,2.9 10.7,2.8 2,-0.1 4.5,-0.3 6.3,-2 0.7,-0.8 1.3,-1.7 1.6,-2.7 1.4,-3.3 2.5,-6.7 3.3,-10.2 1,-4.2 0.7,-2.2 2.1,-7.8 0.6,-2.4 1,-4.1 1.2,-4.9 1.5,-6.5 5.4,-22.3 6.8,-27.7 0.5,-1.5 0.8,-3.1 1,-4.7 0.2,-1.8 0,-2.7 0.6,-3.5 0.9,-1.2 2.8,-1.2 3.7,-1.2 9.5,0.1 28.1,5.9 37.3,-0.5 0.9,-0.6 1.7,-1.4 2.4,-2.2 0.9,-0.8 1.6,-1.8 2.3,-2.8 1.7,-3.3 0.1,-8.2 -2.4,-10.7 l -1.4,-1.3 c -2.3,-2.1 -3.4,-2.9 -4,-3.4 -2.6,-2.4 -1.6,-4.7 -3.6,-7.7 -2.2,-3.3 -6,-4.3 -9.4,-5.1 -5.3,-1.5 -12.2,-1.2 -13,1.1 z"
   id="path3"
   style="fill:#ffffff;fill-opacity:1" />

	<path
   class="st0"
   d="m 717.9,71.2 c -1.6,1 -2.8,1.6 -3.2,3 -0.7,2.4 1.8,5 2,5.3 2.1,2.1 4.3,2 11.5,3.3 6.6,1.2 5.7,1.4 7.3,1.4 5.7,0.2 9.5,-2.9 15,-6.1 1.6,-0.9 6.7,-3.5 17,-8.5 13.5,-6.6 17.8,-9.1 24.7,-10.2 2.8,-0.5 11.3,-1.8 13,1.5 0.7,1.3 0.1,2.9 -1,5.4 -1.6,3.7 -4.4,7.2 -9.8,13.9 -1.7,2 -2.3,2.9 -2,3.5 0.8,1.8 7.3,0.8 11.5,-0.3 4.2,-1.1 6.1,-3.1 17.5,-9.9 12.2,-7.3 14,-10.5 14.8,-13.1 0.5,-2.2 0.7,-4.4 0.5,-6.7 -0.2,-3.6 -1.3,-6.1 -2.7,-9.6 -1.1,-2.6 -1.6,-4 -2.6,-4.8 -2,-1.7 -3.5,-0.7 -7.6,-2 -4.1,-1.3 -4.1,-3 -6.8,-3 -0.7,0 -2.3,0 -7.7,2.7 -3,1.5 -4.4,2.5 -6.3,3.5 -3.3,1.8 -6.9,3.4 -10.5,4.5 -10.6,3.8 -18.1,6 -25.7,8.8 -14.6,5.3 -29.2,12.5 -36.6,13.9 -0.9,0.2 -2.5,0.6 -5.7,1.3 -3.2,0.7 -4.8,1.1 -6.6,2.2 z"
   id="path4"
   style="fill:#ffffff;fill-opacity:1" />

	<path
   class="st0"
   d="m 777.8,105 c -1,-1.2 -2.1,-2.3 -3.2,-3.2 -4.8,-4.2 -5,-4.8 -6.7,-5.3 -1,-0.3 -0.9,0 -4.2,-0.6 -1,-0.3 -2.1,-0.4 -3.2,-0.3 -0.9,0.1 -1.3,0.4 -3.2,1.4 -1.6,0.8 -0.1,0 -3.2,1.5 -7.5,3.6 -8.5,4.2 -9.7,5 -1.2,0.7 -2.4,1.6 -3.4,2.5 -2,1.8 -1.8,2.4 -3.3,3.6 -0.6,0.5 -3.9,3.2 -6.8,2.3 -1.9,-0.6 -1.7,-2 -3.6,-3 -2.4,-1.2 -6.2,-0.1 -8.1,2.2 -1.3,1.6 -1.3,3.9 -1.2,8.4 0.1,1.7 0.5,3.4 1.1,5 0.8,2.9 1.9,5.7 3.1,8.5 3.3,7.5 4.5,7.2 4.8,10.3 0,1.1 0.3,2.1 1.1,2.9 1.2,1 3.3,0.5 4,0.4 8.2,-1.9 13.5,2.4 21.4,-1.9 2.2,-1 4.1,-2.5 5.6,-4.5 1.7,-2.3 1.6,-3.5 3.4,-5.8 1.5,-1.8 2.2,-1.4 4.8,-3.5 1.6,-1.3 3,-2.9 5.7,-6.2 2.9,-3.6 4.3,-5.4 4.9,-7 0.4,-0.5 3.3,-7.6 -0.1,-12.7 z m -17.3,13.4 c -0.5,1.6 -1.2,1.5 -3.8,5.6 -0.4,0.8 -0.9,1.5 -1.5,2.2 -1.4,1.5 -3.1,2.6 -5.1,3.2 -0.9,0.3 -1.3,0.3 -5.8,0.5 -5.3,0.2 -6.5,0.2 -7,-0.6 -0.3,-0.5 0,-1.2 0.5,-2.7 0.5,-1.7 1.2,-3.3 2.2,-4.7 1.4,-1.6 3.1,-2.9 5,-3.9 1,-0.5 1.9,-1.1 2.7,-1.8 0.8,-0.8 1.5,-1.7 2,-2.6 1.5,-2.5 3.4,-5.9 5.9,-6.2 1.9,0 3.6,0.9 4.6,2.5 0.6,0.9 0.6,1.8 0.7,3.6 0.1,1.6 0,3.3 -0.4,4.9 z"
   id="path5"
   style="fill:#ffffff;fill-opacity:1" />

	<path
   class="st0"
   d="m 785.9,155.4 c -0.4,-3.6 -3.6,-6.2 -7.2,-5.8 0,0 0,0 -0.1,0 -4.6,0 -9.1,0.6 -13.5,1.8 -3.4,1.1 -7.3,2.9 -15,6.5 -6.8,3.2 -10.2,4.8 -10.7,5.2 -2,1.6 -4.6,4.1 -8.4,4.3 -0.8,0.2 -1.7,0 -2.4,-0.4 -2.4,-1.7 0.2,-6.8 -1.9,-8.5 -1.7,-1.3 -5.6,0 -7.6,2.4 -1.1,1.6 -1.6,3.6 -1.5,5.5 -0.2,7.4 0,14.8 0.5,22.1 0.4,5.4 0.3,6.4 1.3,7.7 3.1,4 10.8,4.2 12.1,4.2 2.7,0 3.9,-0.5 6,0.3 2.7,1 3,2.5 5.3,3.7 2.5,1.3 3.8,0.4 9.6,0.3 7.9,-0.1 9.4,1.6 12.6,-0.1 2.1,-1.3 3.8,-3.2 4.7,-5.5 2.4,-5.5 -1,-9.2 1.8,-13 1.2,-1.6 1.8,-0.9 4.7,-3.4 1.5,-1.3 4.9,-4.1 6.4,-8.2 1.8,-4.9 -1.2,-6.1 0.7,-11.7 1.2,-3.4 3,-4.5 2.6,-7.4 z m -20.5,12 c -0.1,2.2 -0.2,4.5 -1.6,6.8 -1.2,1.8 -1.9,1.5 -3.3,3.7 -1.4,2.2 -0.9,2.8 -2,3.8 -0.6,0.6 -1.3,0.8 -6.6,1.6 -3.5,0.5 -4,0.5 -5.1,1 -0.3,0.2 -0.7,0.4 -1,0.6 -0.9,0.5 -1.7,1.2 -2.4,2 -1.4,1.5 -6.6,4.6 -8.4,3.3 -1.8,-1.3 -0.4,-6.3 1,-9.5 2.7,-5.9 7.8,-9.6 11.5,-12.2 1.2,-0.9 3,-2 3.5,-2.4 1.2,-0.8 2.4,-1.6 3.7,-2.2 1.5,-0.6 3.1,-1 4.7,-1.2 2.9,-0.4 4.3,-0.6 5.3,0.3 1,0.9 0.8,2.1 0.7,4.4 z"
   id="path6"
   style="fill:#ffffff;fill-opacity:1" />

</g>
    <g
       id="南"
       transform="matrix(0.0833359,0,0,0.0833359,41.20994,91.341709)"
       style="fill:#ffffff;fill-opacity:1">
	<path
   class="st0"
   d="m 602,108.1 c -0.2,-11.5 -1.2,-14.2 -3.1,-16.1 -1.1,-1 -1.4,-0.9 -4.8,-3.6 -3.4,-2.7 -3.9,-3.6 -5.3,-4.4 -3.7,-2.2 -8.5,-0.8 -11.3,0.1 -54,17.6 -71.4,31.8 -71.4,31.8 -9.5,7.8 -16.7,15.4 -19.8,13.4 -4.4,-2.8 3.5,-21.4 -1.1,-23.7 -2,-1 -5.3,1.5 -6.1,2.2 -2.4,1.9 -2.6,3.5 -5.3,8.8 -4.3,8.4 -4.2,6.9 -6.4,13.3 -2.5,7.4 -4.9,20 -6,21.7 -0.5,0.7 -0.9,1.5 -1.1,2.3 -0.1,0.2 -0.1,0.4 -0.2,0.6 -0.7,2.9 -0.8,6 -0.4,8.9 1.3,8.5 -2.1,12 0.7,15.1 3.5,3.9 11.5,1.6 11.9,1.5 4.3,-1.3 9.4,-4.5 10.5,-9.4 0.4,-2 -0.3,-1.8 -0.8,-6.9 -0.5,-4.7 -1.3,-12.2 1.8,-15.8 0.9,-0.9 1.6,-2 2,-3.2 0.5,-1.7 0,-2.2 0.5,-3.3 0.5,-1.1 1.6,-1.7 5.8,-3.2 3.2,-1.2 4.8,-1.9 6.1,-2.2 0.8,-0.2 0.9,-0.2 6.2,-1 4.3,-0.7 4.9,-0.8 5.6,-0.4 0.2,0.1 0.3,0.2 0.4,0.4 1.2,1.5 2.1,3.1 2.7,4.9 0.8,2.5 1.2,3.7 0.8,4.4 -0.2,0.3 -0.6,1.2 -3.1,1.9 -4.7,1.4 -7.2,-0.2 -8.7,1.4 -0.7,0.8 -0.8,1.8 -1,3.5 0,0.4 -0.2,3.5 0.9,4.1 0.6,0.3 1.5,-0.2 1.8,-0.4 3.1,-1.8 2.8,-0.1 12.9,-3.8 3.3,-1.2 4.7,-1.8 5.4,-1.2 0.7,0.6 0,1.7 0.2,5.1 0.1,1.8 0.3,2.1 0,2.8 -0.6,1.4 -2.8,1.7 -4.4,2 -5,0.9 -7.4,1.4 -9.6,1.6 -6.8,0.7 -10.1,1 -10.7,0.9 -1.3,-0.2 -2.8,-0.5 -3.8,0.4 -1.4,1.2 -1,3.8 -0.8,4.6 0.1,1.6 0.8,3 2,4 1.9,1.4 4.6,0.5 6.2,0.1 12,-2.9 16.1,-6 18.1,-4.5 1.5,1.2 -0.1,3.7 0,12.3 0,5.3 0.1,8 1.8,9.3 2.7,2.2 8.6,0.1 11.9,-3.3 1.4,-1.5 2.4,-3.2 3,-5.1 1.1,-3.3 0.2,-4.9 0.2,-10.9 0,-4.7 0,-7 0.8,-8 2.5,-3.1 8.7,-1.8 13.9,-3.6 l 3.1,-1.1 c 1,-0.5 1.7,-0.9 2.7,-1.4 1.1,-0.5 2.2,-0.9 3.3,-1.2 6,-1.8 13.6,-1.6 14.4,-4.5 0.2,-0.9 0,-1.8 -0.5,-2.6 -2.5,-4.9 -13.9,-3.9 -17.9,-3.6 -0.1,0 -2,0.2 -4.6,0.1 -2.3,-0.1 -5.8,-0.3 -5.8,-0.9 0,-0.6 5.2,-1 8.6,-4.2 0.5,-0.4 0.9,-1 1.1,-1.6 0.5,-1.7 -0.1,-4 -1.5,-4.7 -1.6,-0.7 -3.9,0.8 -6.7,1.5 -0.5,0.1 -0.9,0.2 -0.9,0.2 -0.8,0.1 -1.4,0.2 -3.5,0.6 -5.2,0.9 -6.7,1.9 -7,1.4 -0.6,-0.9 3.1,-5.4 8.2,-8.7 6.6,-4.2 8.9,-2.4 11.4,-5.1 4.6,-5.1 -3.3,-15 1.2,-21.8 2.1,-3.2 6,-4.3 8.9,-4.8 0.3,0 0.5,-0.1 0.8,-0.1 0.9,-0.3 1.7,-0.7 2.5,-1.3 1.8,-1.3 4,-2 6.2,-1.8 3,0.5 5.1,4.1 7.5,8.2 l 0.1,0.1 c 1.1,1.9 1.8,3.9 2.2,6.1 1.1,6.3 1.7,12.8 1.7,19.2 0,2.4 0,4.4 -0.2,6.3 -0.6,9.5 -1.6,12.6 -2.9,22.8 -1.3,9.9 -1.8,19.3 -6.2,25.3 -0.9,1.3 -2.2,2.2 -3.6,2.8 -0.8,0.3 -2.2,0.6 -5.5,0.8 -3.3,0.2 -5.6,0 -8.5,-0.1 -5.7,-0.2 -8.6,-0.3 -8.8,0.3 -0.5,1.4 5.5,4.8 13.1,9.2 5,2.8 6.3,3.3 7.6,3.6 2.4,0.7 7.8,2.1 12.5,-0.7 1.3,-0.8 4.1,-2.7 6.7,-10.1 2.5,-7 2.4,-11.9 3,-19.1 1.1,-14.9 2.8,-12.8 3.6,-24.8 0.3,-4.9 0.4,-9.3 2.6,-14.9 1.1,-2.7 1.9,-3.5 2.6,-6.3 0.7,-2.8 -0.2,-4.8 -0.4,-12.5 z m -67,44.6 c 0.2,-2.5 0.3,-3.7 0.7,-4.6 2.2,-4.1 8.8,-3.6 9.5,-3.5 0.2,0 0.4,0.1 0.6,0.1 0.7,0.2 1,0.7 3.7,1.8 3.4,1.4 4.5,1.4 4.6,2 0.2,1.2 -3.3,2.6 -6.9,4 -1.5,0.6 -3.1,1.1 -4.7,1.4 -1.4,0.1 -2.7,0.4 -3.9,1 -1,0.5 -2.6,1.2 -3.2,0.6 -0.2,-0.1 -0.5,-0.5 -0.4,-2.8 z m 3.3,-34.9 c -0.1,0.2 -0.1,0.4 -0.2,0.6 0,0 0,0 0,0.1 0,0.1 0,0 0,0.1 0,0.1 0,0.1 0,0.1 -0.4,1.2 -1,2.4 -1.6,3.6 l -0.4,0.9 c -0.4,1.2 -0.2,2.2 -1.3,6.1 -0.3,1.4 -0.8,2.8 -1.6,4 l -0.3,0.4 c -0.5,0.8 -1.1,1.6 -1.7,2.3 -0.5,0.6 -1.1,1.3 -1.7,1.8 -1.4,1.2 -3.1,2 -4.9,2.5 -2.4,0.9 -3.6,1.3 -4,0.8 -0.9,-0.9 0.8,-4 2.1,-5.8 1.7,-2.2 2.2,-1.8 3.2,-3.3 1.6,-2.4 1.3,-5.6 0.8,-10.1 -0.3,-2.5 -0.6,-3.1 -0.2,-4.4 0.7,-2.2 2.5,-3.8 4.7,-4.5 1.2,-0.3 2.4,-0.3 3.5,-0.1 1.7,0.2 3.1,0.3 3.7,1.3 0.6,1 0.3,2.1 -0.1,3.6 z"
   id="path7"
   style="fill:#ffffff;fill-opacity:1" />

	<path
   class="st0"
   d="m 510.1,43.2 c -1.8,7.4 0.4,11.1 -2.2,13.3 -1.7,1.5 -3.2,0.3 -7.3,1.1 -5.1,1 -11.6,4.6 -12.1,8.5 -0.5,3.7 6.4,4.9 12.1,13.8 2.1,3.3 4.4,6.8 3.8,10.9 -0.9,6.5 -8,9 -7.3,10.3 1.1,2.3 25.7,-0.3 34.1,-15.3 3,-5.5 3.2,-11.1 9.1,-15.2 1.8,-1.2 2.9,-1.5 9.7,-5.4 3.9,-2.3 5.9,-3.4 7.1,-4.6 2,-1.9 6.6,-6 5.9,-11.3 -0.6,-5 -5.4,-7.8 -6.3,-8.4 -3.6,-2.1 -7.3,-2.1 -11.3,-2 -8.1,0.2 -11,2 -13.8,0.5 -3.1,-1.7 -2.4,-4.2 -5.9,-5.9 -3.1,-1.5 -7.6,-1.7 -10.9,0.6 -3,2.2 -3.8,5.6 -4.7,9.1 z"
   id="path8"
   style="fill:#ffffff;fill-opacity:1" />

</g>
    <g
       id="北"
       transform="matrix(0.0833359,0,0,0.0833359,41.20994,91.341709)"
       style="fill:#ffffff;fill-opacity:1">
	<path
   class="st0"
   d="m 305.5,53.7 c -1,-0.3 -2,-0.4 -3,-0.2 l -0.6,0.1 c -2.8,0.5 -8.5,-0.5 -10.6,1.1 -2.9,2.2 -1.3,10.8 1.3,16.3 1.4,2.9 3.2,5.1 3.9,9.3 0.3,1.7 0.5,3.5 0.5,5.2 0.1,3 -0.4,4.7 0.2,14.2 0.3,5.8 0.8,8.6 -1.1,10.2 -1.9,1.6 -4.2,0.1 -10.3,0.2 -4.1,0.1 -9.7,0.2 -14.2,3.6 -1,0.8 -5.6,4.6 -5.6,10.2 -0.1,2.3 0.7,4.6 2.2,6.3 3.2,3.6 8.1,3.1 8.6,3 h 10.4 c 2.3,-1.1 4.3,-2.1 6.1,-3 3.7,-1.8 5.1,-2.3 5.8,-1.7 0.7,0.6 0.5,1.8 0.3,3.1 -0.5,3.8 -0.4,7.7 -0.8,11.5 -0.3,2.8 -0.3,5.6 -0.2,8.4 -0.1,2.2 -1,4.4 -2.5,6.1 -0.9,0.8 -1.9,1.5 -3,2 -4.8,3.3 -6.2,4.8 -8.9,6.6 -3.4,2.2 -7.2,3.8 -11.2,4.6 -0.8,0.2 -1.5,0.4 -2.2,0.8 -2.3,1.4 -3.7,3.7 -3.4,5.8 0.3,3.1 3.8,4.7 5.1,5.2 2.3,1 4.2,0.9 7.5,0.7 3.7,-0.2 7.7,-0.5 11.9,-3 1.9,-1.2 3.6,-2.7 5,-4.3 1.4,-1.5 1.9,-2.4 5,-6.6 2.2,-3 3.2,-4.5 3.4,-4.7 3,-2.8 5,-1.6 9.1,-4.5 1.9,-1.2 3.5,-2.8 4.7,-4.7 1.5,-2.4 1.8,-4.4 2.4,-8.1 0.6,-3.3 0.6,-6.7 0,-10 -0.9,-4.2 -2.1,-4.5 -3.2,-8.6 -0.7,-2.4 -0.6,-6 -0.4,-13.3 0.2,-8.4 0.6,-10.4 1.5,-12.4 0.9,-2 1.2,-1.8 3,-5.4 2.4,-4.7 2.1,-5.5 4.3,-10 2.2,-4.4 2.6,-4.2 3.4,-7 0.2,-0.8 0.5,-2.6 1.2,-6.1 0.4,-1.8 0.7,-3.6 0.8,-5.4 -0.6,-4.5 -5.7,-7.2 -7,-8 -2.2,-1.2 -3.2,-1.1 -6.3,-2.1 -3.7,-1.2 -7.3,-2.8 -10.6,-4.9 z"
   id="path9"
   style="fill:#ffffff;fill-opacity:1" />

	<path
   class="st0"
   d="m 373.3,55.3 c -3.9,-2.7 -10.3,-4.6 -13.6,-2 -1.6,1.3 -2.1,3.5 -1.8,10.8 0.3,9.1 2.3,27.2 0.4,31.7 -0.8,2.2 -1.9,4.3 -3.2,6.2 -0.9,1 -1.7,2.2 -2.4,3.4 -0.8,1.7 -1.2,3.6 -1.2,5.5 -0.1,8.8 -2.5,14.4 -0.4,25.9 1,5.4 1.7,5.1 2.4,10.4 0.5,3.5 0.5,6 2.2,8.9 0.6,1 0.5,0.5 3.4,4 3.3,4 3.9,5.3 5.9,6.3 1.4,0.6 2.8,1 4.3,1.1 4.4,0.5 8.9,0.7 13.3,0.5 9.7,-0.5 14.5,-0.8 16,-3.4 0.7,-1.5 1.5,-2.9 2.3,-4.3 l 0.1,-0.2 c 0.6,-0.9 1.3,-1.8 2,-2.7 1.5,-1.7 2.7,-3.7 3.4,-5.9 0.2,-1.9 0.2,-3.8 0.1,-5.8 -0.2,-3 -0.6,-3.8 -0.8,-4 -0.6,-1 -1.2,-1.3 -2,-2.8 -0.4,-0.7 -0.6,-1.4 -0.9,-2.2 -2.1,-6 -1.2,-9 -3.8,-10.5 -1.2,-0.7 -2.7,-0.9 -4,-0.4 -3.1,1.3 -1.7,6.2 -4.9,10.3 -2.1,2.6 -4.9,3.4 -8,4.4 -6.3,1.9 -14.4,1.3 -16,-1.9 -0.2,-0.5 -0.6,-1.4 -1.6,-3.9 -0.3,-0.8 -0.7,-1.6 -1.1,-2.4 -0.9,-1.7 -1.4,-2.2 -1.9,-3.1 -1.3,-2.2 -1.8,-4.5 -1.8,-11.3 0,-6.8 -0.1,-10.3 0.9,-11.5 0.2,-0.3 0.5,-0.5 0.8,-0.7 2.4,-1.5 4.4,-1.3 10.8,-1.7 1,0 2.1,-0.1 3.1,-0.3 2.1,-0.4 4.1,-1.2 6,-2.2 4.8,-2 5.7,0.1 8.8,-1.8 3.1,-1.9 2.5,-3.9 6.3,-6.6 2,-1.4 3.4,-1.2 5.8,-3.1 1.2,-0.8 2.3,-2 3,-3.3 0.9,-1.9 1.4,-5 -0.1,-6.9 -1.3,-1.5 -3.5,-1.4 -7.4,-1.2 -3.9,0.2 -7.5,0.3 -11.3,2.3 -4.9,2.5 -4.9,5.3 -10.5,8 -2.4,1.2 -5.4,2.6 -6.5,1.6 -2.8,-2.7 13.8,-18.1 9.2,-29.3 -1.1,-2.3 -3,-4.4 -5.3,-5.9 z"
   id="path10"
   style="fill:#ffffff;fill-opacity:1" />

</g>
    <g
       id="河"
       transform="matrix(0.0833359,0,0,0.0833359,41.20994,91.341709)"
       style="fill:#ffffff;fill-opacity:1">
	<path
   class="st0"
   d="M 50,6 C 47.9,4.7 33.3,-3.7 25.8,2 25,2.7 23,4.4 21.4,15.1 c -2.5,16.7 -0.2,28.4 -4.6,38.4 -0.2,0.3 -0.9,2 -1.9,4 -2,4.1 -4.3,8.1 -6.8,12 -3.9,6.3 -6.4,13.3 -7.5,20.6 -0.4,3 -0.5,6.1 -0.5,9.1 0.1,16.4 0.1,24.6 0,29.2 -0.4,12.6 0.3,25.2 -0.1,37.8 0,0.4 0.1,0.8 0.2,1.1 v 0 c 0.8,1.9 5.3,6.6 5.3,6.6 1.9,2 2.3,4.6 3,9.7 0.6,4.4 -0.1,5.2 0.1,9.2 0.3,5.5 2.1,9.6 4.1,14.1 2,4.4 4.5,8.6 7.5,12.5 0.3,0.5 0.9,1.3 1.7,2.3 5.6,7.2 9.3,12 13.8,11.8 2.9,-0.2 5.5,-2 6.9,-4.5 1,-1.9 0.4,-3 0.3,-7.4 -0.2,-4.7 0.2,-9.4 1.2,-14 0.7,-2.8 1,-2.4 2.7,-7.5 1.1,-3.2 2,-6.6 2.7,-9.9 1.3,-7 1.7,-16.6 2.9,-20.1 1.3,-4 2,-3.3 3.9,-7.7 3.5,-8.3 3.3,-15.9 2.8,-26.5 -0.3,-6.8 0.7,-13.7 0,-20.5 -0.1,-1.1 -0.5,-4.6 1.4,-6.2 0.9,-0.6 2.1,-0.9 3.2,-0.7 8.6,0.8 74.5,-38.9 91.9,-42.9 8.8,-2 18,-3.4 18,-3.4 l 1,-0.1 1.4,-0.2 c 1.6,-0.2 17.4,-0.2 17.4,-0.2 7.4,0 12.3,0 16.6,-3.4 2.1,-1.6 3.7,-3.8 4.5,-6.3 1.5,-5.6 -2.5,-12 -7.5,-14.4 -2.8,-1.2 -6,-1.5 -9,-0.8 -16.3,2.9 -26.6,10.3 -42.9,16.3 -6.5,2.4 -13.6,4.2 -13.6,4.2 -7,2 -7.8,1.9 -14.2,3.7 -5.5,1.5 -10.9,3.3 -16.1,5.5 -4.7,2 -5.3,2.7 -9.7,4.6 -5,2.2 -10.2,4 -15.5,5.4 -3.7,1.5 -9.2,3.8 -16,6.7 -7.5,3.2 -7.7,3.4 -9.4,3.9 -10.8,2.9 -18.3,-0.9 -20,2.3 -1,2 -0.4,4.6 0.6,8 0,0.1 0.1,0.3 0.2,0.5 0.8,2.2 2.2,4.2 4,5.7 0.4,0.3 0.7,0.7 1,1.1 0.2,0.3 0.4,0.7 0.6,1.1 0.8,1.4 2.4,1.4 3.1,2.7 0.5,0.9 0,1.3 0.5,3.7 0.7,3.1 1.7,4.3 2,10.1 0.1,2.2 -0.1,1.1 -0.1,6.3 0,7.7 0.4,8.7 -0.3,11.4 -0.7,2.4 -1.4,3 -1.6,5.5 -0.2,1.6 0.1,1.7 0,5.2 -0.1,2.4 -0.4,4.8 -0.9,7.2 -0.4,1.9 -1,3.9 -1.7,5.7 -1.3,3.3 -2.8,6.5 -4.6,9.6 -2.3,4.1 -2.4,3.9 -4.3,7.3 -4.6,8.3 -5.2,12 -7.6,12.3 -2.1,0.2 -4,-2.2 -5,-3.7 -6.1,-8.8 -9.8,-19 -10.7,-29.7 -0.5,-13.8 -2.3,-23.7 0.1,-34.9 1.2,-4.8 2.9,-9.5 5.1,-13.9 4.8,-10.5 7.3,-11 7.7,-15.9 0.7,-8.5 -6.5,-10.6 -7.3,-20 -0.7,-7.3 2.9,-15 7.7,-19.7 11.2,-10.8 26,-3.1 34.3,-13 4.9,-5.9 2.9,-14.2 2.5,-16.1 C 63.8,14.2 54,8.4 50,6 Z"
   id="path11"
   style="fill:#ffffff;fill-opacity:1" />

	<path
   class="st0"
   d="m 181.3,107.1 c -1,-5.6 -3.7,-9.7 -8.8,-18 -1.3,-2.1 -2.8,-4.4 -5.7,-5.8 -3.9,-1.8 -7.8,-0.8 -9.3,-0.4 -1.2,0.3 -7.7,2.2 -10.5,8 -3.4,6.9 1.3,14.1 -2.4,16.7 -1.1,0.8 -2.4,1 -3.7,0.7 -5.1,-1.6 -2,-14 -8.1,-17.6 -1.2,-0.7 -1.2,-0.2 -11.3,0.2 -8.9,0.3 -9.6,0.2 -11.5,1 -0.9,0.4 -1.5,0.7 -9.2,6.8 -5,4 -5.2,4.2 -6.5,5.1 -5.1,3.7 -6.1,3.5 -10,6.2 -2.3,1.6 -8.5,6.1 -12,12.6 -1.5,3 -2.7,6 -3.7,9.2 -1.2,3.5 -1.1,4.1 -2.8,9.9 -2.1,7.1 -2.4,6.6 -2.5,8.5 -0.2,3.9 -1.3,6.4 -0.5,8.9 0.5,1.9 1.4,1.3 3,4.2 2,3.5 1.2,5.3 2.7,7.8 1.8,3.1 5.2,4.2 6.5,4.7 6.9,2.4 13.5,-1.9 15.7,-3.5 0.4,-0.3 0.7,-0.7 0.9,-1.2 0.2,-0.4 0.3,-0.6 0.4,-1 1.4,-4.6 18.3,-10.1 18.3,-10.1 9.7,-3.2 10.6,-3.4 12.5,-4.6 3.7,-2.4 6.8,-5.6 9.2,-9.3 5.2,-4.3 9.6,-9.4 13.1,-15.1 2.5,-4 4.4,-8.4 5.9,-12.9 0.2,-2.9 0.4,-5.8 0.6,-8.7 1.3,-2.6 2.7,-5.2 4,-7.7 0.1,-1.2 1,-2.2 2.1,-2.4 0.4,-0.1 0.8,0 1.2,0.1 1.2,0.4 1.6,2 1.8,2.6 1.4,4.9 2.9,5.2 3.1,8.2 0.2,3.5 -1.7,4.4 -3.3,9.2 -1,2.9 -0.9,4.6 -1.1,11.6 -0.4,14.9 -0.7,12.3 -0.6,16.3 0,0 0.2,9.8 -0.2,27.7 v 0 0 c -1,2 -2.2,3.8 -3.5,5.5 -1.2,1.2 -3.1,1.5 -6.8,2.1 -1.8,0.3 -3.6,0.4 -5.4,0.5 v 0 c -11.7,-1 -21.2,-6.1 -22.5,-4.3 -1.4,2 9.4,11.4 12.8,13.4 1.5,0.9 3.1,1.6 4.7,2.3 1.2,0.3 2.3,0.9 3.3,1.6 4.6,3.3 7.1,7.6 13.2,10 l 0.6,0.2 c 4.7,1.7 7.5,2.7 10,2.9 2.3,0.2 5.4,0.4 7.3,-1.5 1.9,-1.9 1.7,-5.5 1.2,-11.1 -0.2,-2 -0.3,-2.3 -0.5,-4.3 -0.4,-3.7 -0.4,-7.5 0,-11.2 0.7,-9.2 -0.4,-10.7 1,-23 1,-8.9 1.8,-18.4 4,-30.5 2.9,-15.3 4.1,-15.6 3.3,-20.5 z m -64.4,18.2 c -1.3,1.7 -2.5,1.4 -5.5,4.3 -2.5,2.4 -1.9,2.9 -3.8,4.4 -2.8,2.1 -4.6,1.6 -6,3.7 -1.1,1.6 -0.5,2.5 -1.6,3.5 -1.6,1.1 -3.7,1.3 -5.4,0.3 -3.7,-2 -4,-10.3 -0.8,-15 1.3,-1.8 2.7,-3.4 4.4,-4.8 1.4,-1.1 2.7,-2.3 3.9,-3.6 1.5,-1.8 1.1,-2.2 2.2,-3.5 0.4,-0.5 3.1,-3.5 7.1,-3.2 1.8,0.1 3.4,0.8 4.7,2 3.2,3 3.2,8.8 0.8,11.9 z"
   id="path12"
   style="fill:#ffffff;fill-opacity:1" />

</g>
    <g
       id="g1"
       transform="translate(0.37148326,-1.7696904)">
      <circle
         id="外圆"
         class="cls-1"
         cx="24.440941"
         cy="102.59831"
         r="12.181178"
         style="fill:#ffffff;stroke:#0095ff;stroke-width:0.362643px;stroke-miterlimit:10;stroke-opacity:1" />
      <circle
         id="内圆"
         class="cls-2"
         cx="-97.365158"
         cy="40.565903"
         r="10.108674"
         transform="rotate(-80.780001)"
         style="fill:#ffffff;fill-opacity:1;stroke:#0095ff;stroke-width:3.08246px;stroke-miterlimit:10;stroke-opacity:1" />
      <path
         id="头"
         class="cls-3"
         d="m 18.390243,98.204894 a 5.2583235,5.2583235 0 0 1 6.054326,0.116043 5.3507974,5.3507974 0 0 1 5.909268,-0.232097 v 1.320025 a 4.882988,4.882988 0 0 0 -5.912894,0.106978 v 0 a 4.8503502,4.8503502 0 0 0 -6.068831,0.02894 c 0.0091,-0.442425 0.01269,-0.892092 0.01813,-1.339968 z"
         style="fill:#0095ff;stroke-width:0.181321" />
      <path
         id="书本"
         class="cls-3"
         d="m 18.081998,100.388 v 6.93917 l 0.181321,-0.0925 a 9.4486631,9.4486631 0 0 1 1.512222,-0.66544 4.9772752,4.9772752 0 0 1 1.544858,-0.17043 c 0.607427,0 1.631893,0.0253 2.681745,0.61829 a 4.5819943,4.5819943 0 0 1 0.507701,0.33726 5.8131673,5.8131673 0 0 1 0.543965,-0.31913 5.9564112,5.9564112 0 0 1 2.692624,-0.62918 c 0.585667,0 1.414307,0 2.29009,0.48776 a 3.7225304,3.7225304 0 0 1 0.56935,0.38802 c 0,-0.56572 -0.01813,-6.8068 -0.01813,-6.84851 a 0.08884753,0.08884753 0 0 0 -0.01092,-0.0418 0.07978146,0.07978146 0 0 0 -0.01632,-0.0181 c -1.087929,-0.94649 -2.815923,-0.861268 -2.815923,-0.861268 -1.651838,0 -3.22027,0.906608 -3.251094,0.930178 a 0.09066075,0.09066075 0 0 1 -0.03627,0.0145 0.08159467,0.08159467 0 0 1 -0.05076,-0.009 C 22.593242,99.399773 21.35119,99.510377 21.345751,99.51219 v 0 a 6.6889501,6.6889501 0 0 0 -2.034427,0.30644 5.684429,5.684429 0 0 0 -1.22936,0.56935 z"
         style="fill:#0095ff;stroke-width:0.181321" />
      <g
         id="上半圈"
         transform="matrix(0.18132149,0,0,0.18132149,12.078443,90.235812)">
        <path
           class="cls-4"
           d="m 253.23,398.19 0.43,3.24 -0.39,0.06 c 0,-0.09 0,-0.22 -0.08,-0.38 a 1.66,1.66 0 0 0 -0.11,-0.34 0.49,0.49 0 0 0 -0.24,-0.21 0.68,0.68 0 0 0 -0.36,0 l -2.78,0.37 0.49,3.67 2.72,-0.36 a 0.86,0.86 0 0 0 0.32,-0.11 0.56,0.56 0 0 0 0.2,-0.28 1.66,1.66 0 0 0 0,-0.35 c 0,-0.16 0,-0.29 0,-0.38 h 0.39 l 0.43,3.24 -0.39,0.05 -0.09,-0.38 a 1,1 0 0 0 -0.11,-0.33 0.49,0.49 0 0 0 -0.23,-0.22 0.7,0.7 0 0 0 -0.36,0 l -5.64,0.75 a 0.69,0.69 0 0 0 -0.31,0.12 0.49,0.49 0 0 0 -0.19,0.27 1.8,1.8 0 0 0 -0.08,0.38 1.67,1.67 0 0 0 0,0.37 l -0.39,0.06 -0.43,-3.24 0.39,-0.06 a 2.31,2.31 0 0 0 0.1,0.37 2,2 0 0 0 0.13,0.33 0.41,0.41 0 0 0 0.25,0.22 1,1 0 0 0 0.34,0 l 2.42,-0.33 -0.48,-3.67 -2.37,0.32 a 0.64,0.64 0 0 0 -0.31,0.11 0.54,0.54 0 0 0 -0.2,0.28 2.78,2.78 0 0 0 -0.08,0.38 2.4,2.4 0 0 0 0,0.37 l -0.4,0.05 -0.43,-3.24 0.39,-0.05 a 2.63,2.63 0 0 0 0.1,0.37 3.33,3.33 0 0 0 0.13,0.32 0.43,0.43 0 0 0 0.25,0.23 0.82,0.82 0 0 0 0.35,0 l 5.63,-0.75 a 0.67,0.67 0 0 0 0.31,-0.1 0.55,0.55 0 0 0 0.2,-0.28 1.63,1.63 0 0 0 0.06,-0.35 2.36,2.36 0 0 0 0,-0.38 z"
           transform="translate(-237.82,-327.82)"
           id="path1-1"
           style="fill:#ffffff" />
        <path
           class="cls-4"
           d="m 251.07,390.72 2.32,0.2 -0.14,6.54 h -0.39 c 0,-0.11 0,-0.26 0,-0.45 a 1.3,1.3 0 0 0 -0.07,-0.36 0.48,0.48 0 0 0 -0.21,-0.25 0.8,0.8 0 0 0 -0.33,-0.08 l -5.66,-0.11 a 0.68,0.68 0 0 0 -0.33,0.05 0.49,0.49 0 0 0 -0.24,0.25 1.87,1.87 0 0 0 -0.13,0.4 3.47,3.47 0 0 0 -0.08,0.4 h -0.39 l 0.12,-6.09 h 1.9 v 0.42 a 2.41,2.41 0 0 0 -0.9,0.46 1.24,1.24 0 0 0 -0.54,0.69 c 0,0.11 0,0.25 0,0.41 0,0.16 0,0.34 0,0.54 v 1.24 l 3.13,0.06 v -0.88 a 1.74,1.74 0 0 0 -0.06,-0.63 0.9,0.9 0 0 0 -0.27,-0.35 1.18,1.18 0 0 0 -0.42,-0.22 2.67,2.67 0 0 0 -0.51,-0.12 v -0.42 l 3.09,0.06 v 0.42 a 2.48,2.48 0 0 0 -0.57,0.11 1.35,1.35 0 0 0 -0.43,0.19 0.72,0.72 0 0 0 -0.29,0.39 1.8,1.8 0 0 0 -0.08,0.58 v 0.88 l 2.36,0.05 a 1.82,1.82 0 0 0 0.56,0 0.56,0.56 0 0 0 0.32,-0.18 0.86,0.86 0 0 0 0.14,-0.39 6.13,6.13 0 0 0 0,-0.72 c 0,-0.12 0,-0.28 0,-0.48 a 3.86,3.86 0 0 0 0,-0.5 2.36,2.36 0 0 0 -0.07,-0.44 0.64,0.64 0 0 0 -0.15,-0.32 3.13,3.13 0 0 0 -0.8,-0.55 5.14,5.14 0 0 0 -0.79,-0.38 z"
           transform="translate(-237.82,-327.82)"
           id="path2-7"
           style="fill:#ffffff" />
        <path
           class="cls-4"
           d="m 250.71,384.16 a 1.84,1.84 0 0 1 0.69,-0.47 1.8,1.8 0 0 1 0.94,-0.09 1.85,1.85 0 0 1 0.9,0.39 2,2 0 0 1 0.56,0.72 2.79,2.79 0 0 1 0.26,0.89 3.58,3.58 0 0 1 0,1 l -0.58,3.68 -0.39,-0.06 c 0,-0.09 0,-0.22 0,-0.39 a 1.68,1.68 0 0 0 0,-0.38 0.51,0.51 0 0 0 -0.16,-0.27 0.84,0.84 0 0 0 -0.33,-0.13 l -5.59,-0.88 a 0.77,0.77 0 0 0 -0.34,0 0.5,0.5 0 0 0 -0.27,0.22 1.56,1.56 0 0 0 -0.18,0.34 2.53,2.53 0 0 0 -0.11,0.33 l -0.39,-0.06 0.57,-3.59 a 3.19,3.19 0 0 1 0.21,-0.78 2.22,2.22 0 0 1 0.4,-0.68 1.52,1.52 0 0 1 0.61,-0.45 1.42,1.42 0 0 1 0.83,-0.09 2,2 0 0 1 0.71,0.27 1.53,1.53 0 0 1 0.48,0.5 2.3,2.3 0 0 1 0.28,0.64 3.47,3.47 0 0 1 0.13,0.74 v 0 a 4.92,4.92 0 0 1 0.29,-0.72 2.44,2.44 0 0 1 0.48,-0.68 z m -1.39,1.14 a 1.29,1.29 0 0 0 -0.47,-0.37 2.65,2.65 0 0 0 -0.65,-0.18 1.4,1.4 0 0 0 -1.07,0.19 1.47,1.47 0 0 0 -0.54,1.05 c 0,0.11 0,0.26 -0.06,0.44 -0.06,0.18 0,0.32 -0.05,0.45 l 3,0.47 0.11,-0.7 a 2.28,2.28 0 0 0 0,-0.78 1.26,1.26 0 0 0 -0.27,-0.57 z m 2.61,-0.37 a 1.5,1.5 0 0 0 -1.21,0.28 1.88,1.88 0 0 0 -0.66,1.25 c 0,0.24 -0.06,0.44 -0.08,0.6 -0.02,0.16 0,0.28 0,0.36 l 2.74,0.43 a 0.55,0.55 0 0 0 0.56,-0.19 1.44,1.44 0 0 0 0.3,-0.75 1.62,1.62 0 0 0 -0.28,-1.33 2,2 0 0 0 -1.37,-0.65 z"
           transform="translate(-237.82,-327.82)"
           id="path3-1"
           style="fill:#ffffff" />
        <path
           class="cls-4"
           d="m 254.32,376.15 2.18,0.82 -1.89,6.26 -0.37,-0.11 c 0,-0.11 0,-0.26 0.08,-0.44 a 1.46,1.46 0 0 0 0,-0.37 0.52,0.52 0 0 0 -0.13,-0.3 0.75,0.75 0 0 0 -0.31,-0.16 l -5.42,-1.64 a 1,1 0 0 0 -0.33,0 0.44,0.44 0 0 0 -0.29,0.18 1.51,1.51 0 0 0 -0.24,0.35 l -0.18,0.36 -0.38,-0.11 1.76,-5.84 1.82,0.55 -0.12,0.4 a 2.65,2.65 0 0 0 -1,0.2 1.19,1.19 0 0 0 -0.7,0.52 4,4 0 0 0 -0.15,0.39 l -0.17,0.51 -0.35,1.19 3,0.9 0.26,-0.85 a 1.65,1.65 0 0 0 0.1,-0.62 0.75,0.75 0 0 0 -0.16,-0.41 1.1,1.1 0 0 0 -0.35,-0.32 2.6,2.6 0 0 0 -0.45,-0.26 l 0.12,-0.4 3,0.89 -0.12,0.4 a 2.52,2.52 0 0 0 -0.57,0 1.67,1.67 0 0 0 -0.47,0.07 0.78,0.78 0 0 0 -0.38,0.3 1.78,1.78 0 0 0 -0.23,0.53 l -0.26,0.85 2.26,0.68 a 2.64,2.64 0 0 0 0.55,0.12 0.56,0.56 0 0 0 0.35,-0.1 0.84,0.84 0 0 0 0.25,-0.34 6.17,6.17 0 0 0 0.23,-0.67 c 0,-0.12 0.08,-0.27 0.14,-0.46 0.06,-0.19 0.1,-0.36 0.13,-0.49 a 3.13,3.13 0 0 0 0,-0.44 0.58,0.58 0 0 0 -0.06,-0.35 3.11,3.11 0 0 0 -0.62,-0.75 6.57,6.57 0 0 0 -0.65,-0.57 z"
           transform="translate(-237.82,-327.82)"
           id="path4-1"
           style="fill:#ffffff" />
        <path
           class="cls-4"
           d="m 258.17,373.13 -1.38,3.27 -0.36,-0.16 0.14,-0.41 a 1.43,1.43 0 0 0 0.09,-0.39 0.51,0.51 0 0 0 -0.36,-0.53 l -5.3,-2.23 a 0.84,0.84 0 0 0 -0.32,-0.07 0.59,0.59 0 0 0 -0.32,0.18 l -0.28,0.34 a 3.57,3.57 0 0 0 -0.22,0.35 l -0.36,-0.15 1.38,-3.26 0.36,0.15 a 3.75,3.75 0 0 0 -0.12,0.39 2.76,2.76 0 0 0 -0.08,0.42 0.49,0.49 0 0 0 0.09,0.35 0.7,0.7 0 0 0 0.28,0.19 l 5.25,2.22 a 0.65,0.65 0 0 0 0.33,0.06 0.57,0.57 0 0 0 0.31,-0.17 2.11,2.11 0 0 0 0.24,-0.31 3,3 0 0 0 0.23,-0.39 z"
           transform="translate(-237.82,-327.82)"
           id="path5-5"
           style="fill:#ffffff" />
        <path
           class="cls-4"
           d="m 257.66,359.19 a 2.92,2.92 0 0 0 -0.18,0.45 1.63,1.63 0 0 0 -0.1,0.48 0.73,0.73 0 0 0 0.3,0.51 6.35,6.35 0 0 0 0.8,0.6 l 4.86,3.11 -0.26,0.41 -8,0.54 3.42,2.19 a 5.58,5.58 0 0 0 0.93,0.5 1.06,1.06 0 0 0 0.59,0.06 1.34,1.34 0 0 0 0.47,-0.33 3.19,3.19 0 0 0 0.38,-0.38 l 0.33,0.21 -1.74,2.72 -0.33,-0.21 a 2.77,2.77 0 0 0 0.18,-0.48 1.47,1.47 0 0 0 0.09,-0.47 0.8,0.8 0 0 0 -0.25,-0.48 6,6 0 0 0 -0.88,-0.65 L 255,365.88 a 1.68,1.68 0 0 0 -0.48,-0.2 0.9,0.9 0 0 0 -0.46,0 1.63,1.63 0 0 0 -0.56,0.28 2.79,2.79 0 0 0 -0.42,0.39 l -0.33,-0.21 1.22,-1.9 7.44,-0.49 -3.16,-2 a 4.75,4.75 0 0 0 -0.93,-0.49 0.88,0.88 0 0 0 -0.56,-0.05 1.72,1.72 0 0 0 -0.44,0.32 2.61,2.61 0 0 0 -0.38,0.39 l -0.34,-0.22 1.73,-2.69 z"
           transform="translate(-237.82,-327.82)"
           id="path6-2"
           style="fill:#ffffff" />
        <path
           class="cls-4"
           d="m 269.06,357.46 -2.15,2.46 -0.3,-0.26 a 3,3 0 0 0 0.39,-0.61 c 0.08,-0.18 0.1,-0.3 0,-0.35 a 0.35,0.35 0 0 0 -0.09,-0.07 l -0.12,-0.06 -1.76,-0.67 -1.79,2.1 0.34,0.64 c 0.11,0.17 0.2,0.33 0.29,0.48 a 3,3 0 0 0 0.23,0.33 1.64,1.64 0 0 0 0.16,0.18 c 0.11,0.1 0.28,0.09 0.49,0 a 2.56,2.56 0 0 0 0.63,-0.49 l 0.3,0.25 -2,2.24 -0.29,-0.26 a 2.48,2.48 0 0 0 0.19,-0.31 1,1 0 0 0 0.12,-0.36 1.21,1.21 0 0 0 0,-0.47 2,2 0 0 0 -0.18,-0.48 c -0.48,-0.95 -1,-2 -1.65,-3.17 l -1.64,-3.13 0.3,-0.34 6.84,2.49 a 1,1 0 0 0 0.39,0.09 1.16,1.16 0 0 0 0.39,-0.05 1.35,1.35 0 0 0 0.32,-0.16 2.3,2.3 0 0 0 0.27,-0.22 z m -4.51,0.27 -3.08,-1.12 1.52,2.9 z"
           transform="translate(-237.82,-327.82)"
           id="path7-7"
           style="fill:#ffffff" />
        <path
           class="cls-4"
           d="m 270.42,346.53 a 2.33,2.33 0 0 0 -0.31,0.37 1.63,1.63 0 0 0 -0.24,0.43 0.76,0.76 0 0 0 0.14,0.58 5.72,5.72 0 0 0 0.59,0.81 l 3.73,4.4 -0.37,0.31 -7.81,-1.83 2.63,3.1 a 4.22,4.22 0 0 0 0.74,0.74 1,1 0 0 0 0.54,0.23 1.2,1.2 0 0 0 0.55,-0.16 3.83,3.83 0 0 0 0.48,-0.26 l 0.25,0.3 -2.47,2.09 -0.25,-0.3 a 3.48,3.48 0 0 0 0.32,-0.41 1.39,1.39 0 0 0 0.22,-0.42 0.85,0.85 0 0 0 -0.1,-0.54 6.35,6.35 0 0 0 -0.65,-0.88 l -2.51,-3 a 1.44,1.44 0 0 0 -0.4,-0.33 0.87,0.87 0 0 0 -0.43,-0.14 1.66,1.66 0 0 0 -0.62,0.11 1.72,1.72 0 0 0 -0.51,0.25 l -0.26,-0.31 1.72,-1.45 7.26,1.72 -2.42,-2.86 a 5.2,5.2 0 0 0 -0.75,-0.75 0.86,0.86 0 0 0 -0.52,-0.21 2.32,2.32 0 0 0 -0.52,0.17 3,3 0 0 0 -0.48,0.27 l -0.25,-0.31 2.44,-2.06 z"
           transform="translate(-237.82,-327.82)"
           id="path8-6"
           style="fill:#ffffff" />
        <path
           class="cls-4"
           d="m 280.44,345.43 -0.28,0.23 a 1.3,1.3 0 0 0 -0.26,0.28 0.47,0.47 0 0 0 -0.08,0.32 1.08,1.08 0 0 0 0.13,0.35 l 0.32,0.52 0.47,0.76 0.22,0.32 a 9.88,9.88 0 0 1 -1,1.2 6.83,6.83 0 0 1 -1.14,0.9 3.82,3.82 0 0 1 -1.39,0.51 3.59,3.59 0 0 1 -1.46,-0.05 4,4 0 0 1 -1.38,-0.66 4.48,4.48 0 0 1 -1.15,-1.28 4.66,4.66 0 0 1 -0.61,-1.58 4,4 0 0 1 0,-1.58 3.72,3.72 0 0 1 0.63,-1.39 3.91,3.91 0 0 1 1.17,-1.08 3.83,3.83 0 0 1 1.07,-0.46 4.19,4.19 0 0 1 0.95,-0.12 v -0.44 l 0.38,-0.24 1.47,2.33 -0.39,0.24 a 7,7 0 0 0 -0.71,-0.62 2.94,2.94 0 0 0 -0.79,-0.44 1.95,1.95 0 0 0 -1.76,0.17 2.4,2.4 0 0 0 -0.79,0.76 2.35,2.35 0 0 0 -0.31,1 3.12,3.12 0 0 0 0.15,1.25 5.83,5.83 0 0 0 0.64,1.41 5.56,5.56 0 0 0 0.89,1.12 3.44,3.44 0 0 0 1.05,0.7 2.35,2.35 0 0 0 1.14,0.22 2.43,2.43 0 0 0 1.15,-0.37 2.81,2.81 0 0 0 0.68,-0.59 1.6,1.6 0 0 0 0.32,-0.57 3.6,3.6 0 0 0 -0.26,-0.52 l -0.26,-0.43 -0.22,-0.37 a 1.47,1.47 0 0 0 -0.27,-0.32 0.46,0.46 0 0 0 -0.37,-0.09 1.78,1.78 0 0 0 -0.48,0.16 3.33,3.33 0 0 0 -0.45,0.21 l -0.21,-0.35 3,-1.8 z"
           transform="translate(-237.82,-327.82)"
           id="path9-1"
           style="fill:#ffffff" />
        <path
           class="cls-4"
           d="m 285.57,339.14 a 4,4 0 0 1 1.26,0.89 5,5 0 0 1 1.31,3.15 3.77,3.77 0 0 1 -0.27,1.52 3.52,3.52 0 0 1 -0.79,1.22 3.83,3.83 0 0 1 -2.75,1.13 3.53,3.53 0 0 1 -1.44,-0.33 4,4 0 0 1 -1.22,-0.91 4.93,4.93 0 0 1 -1.28,-3.1 4,4 0 0 1 0.26,-1.52 3.62,3.62 0 0 1 0.8,-1.24 3.75,3.75 0 0 1 1.22,-0.82 3.88,3.88 0 0 1 1.48,-0.3 3.59,3.59 0 0 1 1.42,0.31 z m 1.39,5.47 a 3.92,3.92 0 0 0 0,-1.23 7.29,7.29 0 0 0 -1.14,-2.69 3.64,3.64 0 0 0 -0.87,-0.88 2.22,2.22 0 0 0 -1,-0.39 2.18,2.18 0 0 0 -1.08,0.16 2.07,2.07 0 0 0 -0.92,0.72 2.38,2.38 0 0 0 -0.39,1.05 3.59,3.59 0 0 0 0.06,1.21 6.29,6.29 0 0 0 0.4,1.33 6.08,6.08 0 0 0 0.69,1.27 3.44,3.44 0 0 0 0.86,0.88 2.27,2.27 0 0 0 1,0.42 2.26,2.26 0 0 0 2,-0.84 2.22,2.22 0 0 0 0.43,-1.01 z"
           transform="translate(-237.82,-327.82)"
           id="path10-4"
           style="fill:#ffffff" />
        <path
           class="cls-4"
           d="m 296,335.71 a 2.41,2.41 0 0 0 -0.45,0.2 1.48,1.48 0 0 0 -0.4,0.28 0.75,0.75 0 0 0 -0.14,0.58 7,7 0 0 0 0.17,1 l 1.37,5.61 -0.46,0.11 -6.17,-5.12 1,3.94 a 4.37,4.37 0 0 0 0.34,1 1,1 0 0 0 0.38,0.45 1.36,1.36 0 0 0 0.56,0.09 2.41,2.41 0 0 0 0.54,0 l 0.09,0.39 -3.13,0.77 -0.1,-0.39 a 2.8,2.8 0 0 0 0.47,-0.22 1.38,1.38 0 0 0 0.39,-0.28 0.77,0.77 0 0 0 0.14,-0.52 4.85,4.85 0 0 0 -0.19,-1.08 l -0.92,-3.77 a 1.51,1.51 0 0 0 -0.21,-0.47 0.92,0.92 0 0 0 -0.32,-0.33 1.85,1.85 0 0 0 -0.6,-0.18 1.79,1.79 0 0 0 -0.57,0 l -0.1,-0.38 2.19,-0.54 5.73,4.78 -0.89,-3.64 a 5.15,5.15 0 0 0 -0.34,-1 0.83,0.83 0 0 0 -0.37,-0.42 1.92,1.92 0 0 0 -0.54,-0.08 2.76,2.76 0 0 0 -0.54,0 l -0.1,-0.38 3.11,-0.76 z"
           transform="translate(-237.82,-327.82)"
           id="path11-2"
           style="fill:#ffffff" />
        <path
           class="cls-4"
           d="m 305.45,339.2 -0.36,0.08 a 1.28,1.28 0 0 0 -0.35,0.13 0.5,0.5 0 0 0 -0.22,0.26 1,1 0 0 0 0,0.36 l 0.05,0.61 c 0,0.44 0.06,0.74 0.08,0.89 0.02,0.15 0,0.28 0.06,0.38 a 8.16,8.16 0 0 1 -1.43,0.64 6,6 0 0 1 -1.41,0.3 3.88,3.88 0 0 1 -1.48,-0.16 3.55,3.55 0 0 1 -1.28,-0.7 3.84,3.84 0 0 1 -0.95,-1.21 4.28,4.28 0 0 1 -0.45,-1.65 4.71,4.71 0 0 1 0.15,-1.69 4,4 0 0 1 0.73,-1.4 3.59,3.59 0 0 1 1.18,-1 3.93,3.93 0 0 1 1.53,-0.44 3.67,3.67 0 0 1 1.17,0.06 4.32,4.32 0 0 1 0.9,0.31 l 0.19,-0.39 h 0.45 l 0.28,2.74 h -0.45 a 8.41,8.41 0 0 0 -0.37,-0.87 2.91,2.91 0 0 0 -0.51,-0.75 2,2 0 0 0 -0.71,-0.5 1.93,1.93 0 0 0 -1,-0.13 2.19,2.19 0 0 0 -1.78,1.12 3.27,3.27 0 0 0 -0.42,1.19 5.93,5.93 0 0 0 0.24,2.94 3.56,3.56 0 0 0 0.63,1.1 2.43,2.43 0 0 0 0.92,0.7 2.36,2.36 0 0 0 1.19,0.18 2.65,2.65 0 0 0 0.88,-0.22 1.71,1.71 0 0 0 0.54,-0.37 5.61,5.61 0 0 0 0,-0.58 c 0,-0.2 0,-0.36 0,-0.5 v -0.43 a 1.23,1.23 0 0 0 -0.1,-0.41 0.48,0.48 0 0 0 -0.28,-0.24 2.1,2.1 0 0 0 -0.51,-0.08 H 302 v -0.41 l 3.44,-0.29 z"
           transform="translate(-237.82,-327.82)"
           id="path12-3"
           style="fill:#ffffff" />
        <path
           class="cls-4"
           d="m 318.05,343.63 -3.44,-0.48 0.05,-0.39 c 0.13,0 0.29,0 0.49,0 a 1.27,1.27 0 0 0 0.41,0 0.71,0.71 0 0 0 0.29,-0.2 0.62,0.62 0 0 0 0.12,-0.33 l 0.79,-5.67 h -0.08 l -3.58,6.27 h -0.28 l -1.59,-7.14 h -0.07 l -0.65,4.66 a 5.19,5.19 0 0 0 -0.06,1 1,1 0 0 0 0.19,0.54 1.36,1.36 0 0 0 0.47,0.29 l 0.48,0.18 v 0.39 l -3.15,-0.44 0.05,-0.39 a 4.73,4.73 0 0 0 0.53,0 1.22,1.22 0 0 0 0.45,-0.12 0.86,0.86 0 0 0 0.33,-0.44 5.48,5.48 0 0 0 0.22,-1.06 l 0.55,-4 a 1.87,1.87 0 0 0 0,-0.58 1,1 0 0 0 -0.19,-0.39 1.13,1.13 0 0 0 -0.39,-0.27 1.92,1.92 0 0 0 -0.48,-0.15 l 0.06,-0.39 2.66,0.36 1.37,6.12 2.59,-4.63 c 0.09,-0.17 0.18,-0.35 0.26,-0.54 a 2.8,2.8 0 0 0 0.13,-0.39 l 2.55,0.36 -0.06,0.39 a 2.46,2.46 0 0 0 -0.4,0 2.27,2.27 0 0 0 -0.36,0 0.35,0.35 0 0 0 -0.28,0.18 0.93,0.93 0 0 0 -0.12,0.33 l -0.78,5.62 a 0.69,0.69 0 0 0 0,0.33 0.5,0.5 0 0 0 0.22,0.27 1,1 0 0 0 0.33,0.15 2.81,2.81 0 0 0 0.4,0.11 z"
           transform="translate(-237.82,-327.82)"
           id="path13"
           style="fill:#ffffff" />
        <path
           class="cls-4"
           d="m 322.1,344.93 -3.41,-1 0.1,-0.38 0.43,0.09 a 1.79,1.79 0 0 0 0.4,0 0.49,0.49 0 0 0 0.31,-0.12 0.58,0.58 0 0 0 0.18,-0.31 l 1.54,-5.49 a 0.65,0.65 0 0 0 0,-0.33 0.5,0.5 0 0 0 -0.22,-0.29 2.2,2.2 0 0 0 -0.37,-0.23 1.58,1.58 0 0 0 -0.38,-0.18 l 0.11,-0.38 3.42,1 -0.11,0.38 a 3.14,3.14 0 0 0 -0.41,-0.07 h -0.42 a 0.43,0.43 0 0 0 -0.33,0.14 0.62,0.62 0 0 0 -0.16,0.3 l -1.55,5.48 a 0.79,0.79 0 0 0 0,0.34 0.61,0.61 0 0 0 0.21,0.29 2.7,2.7 0 0 0 0.33,0.2 2.17,2.17 0 0 0 0.42,0.17 z"
           transform="translate(-237.82,-327.82)"
           id="path14"
           style="fill:#ffffff" />
        <path
           class="cls-4"
           d="m 331.3,344.35 a 3.74,3.74 0 0 1 -1,1.47 3.6,3.6 0 0 1 -1.37,0.74 4.19,4.19 0 0 1 -1.54,0.13 5.6,5.6 0 0 1 -1.54,-0.38 l -3,-1.25 0.15,-0.36 0.4,0.13 a 1.19,1.19 0 0 0 0.34,0.06 0.44,0.44 0 0 0 0.3,-0.1 0.69,0.69 0 0 0 0.2,-0.29 l 2.17,-5.25 a 0.86,0.86 0 0 0 0.07,-0.34 0.51,0.51 0 0 0 -0.14,-0.32 1.48,1.48 0 0 0 -0.3,-0.25 2.63,2.63 0 0 0 -0.3,-0.18 l 0.15,-0.36 3.18,1.31 a 4.42,4.42 0 0 1 1.21,0.74 4.13,4.13 0 0 1 0.89,1 3.43,3.43 0 0 1 0.51,1.61 4.14,4.14 0 0 1 -0.38,1.89 z m -1.25,-0.52 a 4.55,4.55 0 0 0 0.35,-1.41 3.29,3.29 0 0 0 -0.14,-1.26 2.65,2.65 0 0 0 -0.6,-1 2.77,2.77 0 0 0 -1,-0.72 l -0.48,-0.19 -0.4,-0.15 -2.31,5.6 a 0.76,0.76 0 0 0 0,0.75 1.72,1.72 0 0 0 0.77,0.53 2.8,2.8 0 0 0 1.23,0.24 2.27,2.27 0 0 0 1.06,-0.32 2.86,2.86 0 0 0 0.87,-0.8 5.61,5.61 0 0 0 0.65,-1.27 z"
           transform="translate(-237.82,-327.82)"
           id="path15"
           style="fill:#ffffff" />
        <path
           class="cls-4"
           d="m 338.91,348.87 a 3.54,3.54 0 0 1 -2.69,1.82 4.23,4.23 0 0 1 -1.54,-0.11 5.35,5.35 0 0 1 -1.46,-0.62 l -2.79,-1.69 0.2,-0.34 0.38,0.19 a 1.5,1.5 0 0 0 0.32,0.12 0.44,0.44 0 0 0 0.32,-0.06 0.72,0.72 0 0 0 0.24,-0.25 l 3,-4.86 a 0.78,0.78 0 0 0 0.12,-0.32 0.42,0.42 0 0 0 -0.09,-0.33 1.48,1.48 0 0 0 -0.26,-0.3 l -0.26,-0.22 0.2,-0.34 2.94,1.79 a 4.5,4.5 0 0 1 1.08,0.91 4.13,4.13 0 0 1 0.72,1.13 3.48,3.48 0 0 1 0.26,1.67 4.23,4.23 0 0 1 -0.69,1.81 z m -1.16,-0.7 a 4.5,4.5 0 0 0 0.57,-1.34 3.22,3.22 0 0 0 0.05,-1.27 2.61,2.61 0 0 0 -0.43,-1.1 2.75,2.75 0 0 0 -0.92,-0.87 l -0.45,-0.26 -0.36,-0.21 -3.15,5.17 a 0.76,0.76 0 0 0 -0.11,0.75 1.64,1.64 0 0 0 0.67,0.63 2.74,2.74 0 0 0 1.18,0.43 2.21,2.21 0 0 0 1.09,-0.15 2.87,2.87 0 0 0 1,-0.66 5.88,5.88 0 0 0 0.86,-1.12 z"
           transform="translate(-237.82,-327.82)"
           id="path16"
           style="fill:#ffffff" />
        <path
           class="cls-4"
           d="m 343.78,354.84 -1.61,1.7 -4.76,-3.9 0.25,-0.3 0.32,0.21 a 1.12,1.12 0 0 0 0.32,0.17 0.5,0.5 0 0 0 0.32,0 0.65,0.65 0 0 0 0.28,-0.23 l 3.57,-4.36 a 0.92,0.92 0 0 0 0.17,-0.3 0.54,0.54 0 0 0 -0.05,-0.34 2.6,2.6 0 0 0 -0.44,-0.62 l 0.25,-0.31 2.57,2.11 -0.25,0.3 a 2.9,2.9 0 0 0 -0.35,-0.21 3,3 0 0 0 -0.33,-0.16 0.44,0.44 0 0 0 -0.34,0 0.89,0.89 0 0 0 -0.28,0.23 l -3.35,4.09 a 4.34,4.34 0 0 0 -0.33,0.46 0.51,0.51 0 0 0 -0.07,0.35 0.85,0.85 0 0 0 0.21,0.34 c 0.12,0.13 0.3,0.28 0.53,0.48 l 0.34,0.26 c 0.12,0.09 0.24,0.16 0.35,0.23 a 2.06,2.06 0 0 0 0.34,0.16 0.59,0.59 0 0 0 0.28,0 5.22,5.22 0 0 0 0.9,-0.27 5.32,5.32 0 0 0 0.86,-0.38 z"
           transform="translate(-237.82,-327.82)"
           id="path17"
           style="fill:#ffffff" />
        <path
           class="cls-4"
           d="m 348.73,360.1 -1.8,1.48 -4.47,-4.76 0.28,-0.27 0.34,0.29 a 1.68,1.68 0 0 0 0.3,0.21 0.49,0.49 0 0 0 0.33,0 0.8,0.8 0 0 0 0.3,-0.18 l 4.12,-3.88 a 0.79,0.79 0 0 0 0.2,-0.26 0.47,0.47 0 0 0 0,-0.35 1.77,1.77 0 0 0 -0.18,-0.38 l -0.23,-0.34 0.29,-0.27 4.17,4.45 -1.38,1.3 -0.29,-0.31 a 2.51,2.51 0 0 0 0.33,-1 1.21,1.21 0 0 0 -0.11,-0.87 c -0.06,-0.09 -0.15,-0.2 -0.25,-0.32 l -0.37,-0.4 -0.84,-0.91 -2.29,2.15 0.61,0.64 a 1.63,1.63 0 0 0 0.49,0.4 0.77,0.77 0 0 0 0.43,0.07 1.39,1.39 0 0 0 0.46,-0.14 3.14,3.14 0 0 0 0.45,-0.26 l 0.28,0.3 -2.25,2.11 -0.28,-0.3 a 2.42,2.42 0 0 0 0.32,-0.47 1.34,1.34 0 0 0 0.18,-0.45 0.77,0.77 0 0 0 -0.06,-0.48 2,2 0 0 0 -0.35,-0.46 l -0.61,-0.65 -1.72,1.61 a 2.89,2.89 0 0 0 -0.37,0.42 0.55,0.55 0 0 0 -0.1,0.36 0.9,0.9 0 0 0 0.17,0.38 c 0.1,0.13 0.26,0.31 0.47,0.54 l 0.33,0.35 0.36,0.35 a 3.32,3.32 0 0 0 0.36,0.26 0.61,0.61 0 0 0 0.33,0.13 3.66,3.66 0 0 0 1,-0.16 6.22,6.22 0 0 0 0.82,-0.29 z"
           transform="translate(-237.82,-327.82)"
           id="path18"
           style="fill:#ffffff" />
        <path
           class="cls-4"
           d="m 354.66,366.39 a 1.91,1.91 0 0 1 -0.31,0.64 2.28,2.28 0 0 1 -0.58,0.52 2.19,2.19 0 0 1 -1.87,0.29 2.8,2.8 0 0 1 -1.61,-1.23 4,4 0 0 1 -0.44,-1 4.08,4.08 0 0 1 -0.16,-1 h -0.47 l -0.24,-0.37 2.22,-1.53 0.24,0.37 a 6.21,6.21 0 0 0 -0.58,0.77 3.58,3.58 0 0 0 -0.36,0.82 2.22,2.22 0 0 0 -0.07,0.85 1.92,1.92 0 0 0 0.33,0.86 2,2 0 0 0 0.45,0.5 1.18,1.18 0 0 0 0.49,0.24 1.21,1.21 0 0 0 0.5,0 1.65,1.65 0 0 0 0.53,-0.24 1.56,1.56 0 0 0 0.59,-0.7 1.67,1.67 0 0 0 0.09,-1 c -0.05,-0.26 -0.12,-0.55 -0.19,-0.87 -0.07,-0.32 -0.13,-0.61 -0.16,-0.85 a 2.65,2.65 0 0 1 0.09,-1.3 2.08,2.08 0 0 1 0.86,-1 2,2 0 0 1 0.81,-0.3 2.1,2.1 0 0 1 0.86,0.06 2.2,2.2 0 0 1 0.8,0.39 2.41,2.41 0 0 1 0.63,0.68 2.52,2.52 0 0 1 0.39,0.9 4.5,4.5 0 0 1 0.11,0.87 h 0.44 l 0.24,0.37 -2.17,1.46 -0.24,-0.37 0.57,-0.7 a 3.38,3.38 0 0 0 0.41,-0.74 1.85,1.85 0 0 0 0.14,-0.78 1.76,1.76 0 0 0 -0.3,-0.81 1.24,1.24 0 0 0 -0.78,-0.57 1,1 0 0 0 -0.89,0.14 1.35,1.35 0 0 0 -0.58,0.66 1.81,1.81 0 0 0 -0.09,0.88 7.12,7.12 0 0 0 0.16,0.85 c 0.06,0.27 0.11,0.54 0.16,0.8 a 5.85,5.85 0 0 1 0.07,0.72 2.5,2.5 0 0 1 -0.09,0.72 z"
           transform="translate(-237.82,-327.82)"
           id="path19"
           style="fill:#ffffff" />
        <path
           class="cls-4"
           d="m 353.63,372.62 a 3.28,3.28 0 0 1 -0.34,-1.34 3.43,3.43 0 0 1 0.22,-1.37 3.77,3.77 0 0 1 0.8,-1.27 4.85,4.85 0 0 1 1.4,-1 4.92,4.92 0 0 1 1.67,-0.48 3.93,3.93 0 0 1 1.54,0.14 3.57,3.57 0 0 1 2.19,1.89 3.6,3.6 0 0 1 0.33,1 4.1,4.1 0 0 1 0,1 h 0.44 l 0.19,0.4 -2.5,1.27 -0.2,-0.41 a 5.52,5.52 0 0 0 0.68,-0.63 3.41,3.41 0 0 0 0.55,-0.73 2,2 0 0 0 0.26,-0.83 1.59,1.59 0 0 0 -0.17,-0.84 2.14,2.14 0 0 0 -1.64,-1.21 3.57,3.57 0 0 0 -1.25,0 6.34,6.34 0 0 0 -1.47,0.52 4.66,4.66 0 0 0 -1.17,0.77 3.46,3.46 0 0 0 -0.75,1 2.51,2.51 0 0 0 -0.3,1.08 2.31,2.31 0 0 0 1.34,2.19 2.88,2.88 0 0 0 0.71,0.2 3.21,3.21 0 0 0 0.76,0 v 0.46 a 3.11,3.11 0 0 1 -3.32,-1.88 z"
           transform="translate(-237.82,-327.82)"
           id="path20"
           style="fill:#ffffff" />
        <path
           class="cls-4"
           d="m 357.78,383.52 -1,-3.12 0.37,-0.12 q 0.06,0.12 0.15,0.36 a 1,1 0 0 0 0.17,0.31 0.44,0.44 0 0 0 0.26,0.17 0.58,0.58 0 0 0 0.36,0 l 2.68,-0.83 -1.1,-3.54 -2.62,0.82 a 0.73,0.73 0 0 0 -0.29,0.16 0.5,0.5 0 0 0 -0.15,0.31 2,2 0 0 0 0,0.35 c 0,0.16 0,0.29 0.06,0.38 l -0.37,0.12 -1,-3.13 0.37,-0.11 c 0,0.08 0.08,0.2 0.15,0.35 a 1.3,1.3 0 0 0 0.16,0.32 0.5,0.5 0 0 0 0.27,0.17 0.77,0.77 0 0 0 0.36,0 l 5.43,-1.69 a 0.77,0.77 0 0 0 0.29,-0.17 0.53,0.53 0 0 0 0.14,-0.3 1.63,1.63 0 0 0 0,-0.39 1.82,1.82 0 0 0 0,-0.37 l 0.38,-0.12 1,3.12 -0.38,0.12 a 2.48,2.48 0 0 0 -0.16,-0.35 1.91,1.91 0 0 0 -0.18,-0.29 0.39,0.39 0 0 0 -0.29,-0.18 1,1 0 0 0 -0.34,0 l -2.33,0.73 1.1,3.53 2.28,-0.71 a 0.75,0.75 0 0 0 0.29,-0.16 0.47,0.47 0 0 0 0.14,-0.31 2.24,2.24 0 0 0 0,-0.38 3,3 0 0 0 -0.05,-0.38 l 0.38,-0.11 1,3.12 -0.38,0.11 a 3.61,3.61 0 0 0 -0.34,-0.64 0.37,0.37 0 0 0 -0.28,-0.17 0.84,0.84 0 0 0 -0.35,0 l -5.42,1.68 a 0.73,0.73 0 0 0 -0.29,0.16 0.6,0.6 0 0 0 -0.15,0.31 2,2 0 0 0 0,0.35 2,2 0 0 0 0.07,0.38 z"
           transform="translate(-237.82,-327.82)"
           id="path21"
           style="fill:#ffffff" />
        <path
           class="cls-4"
           d="m 365.69,389.62 a 4,4 0 0 1 -1.18,1 4.94,4.94 0 0 1 -1.64,0.53 4.52,4.52 0 0 1 -1.73,-0.06 3.8,3.8 0 0 1 -1.41,-0.64 3.57,3.57 0 0 1 -1,-1.07 3.76,3.76 0 0 1 -0.4,-2.95 3.31,3.31 0 0 1 0.68,-1.3 3.88,3.88 0 0 1 1.18,-1 4.45,4.45 0 0 1 1.59,-0.52 4.56,4.56 0 0 1 1.74,0.06 4.15,4.15 0 0 1 1.4,0.63 3.71,3.71 0 0 1 1,1.09 3.76,3.76 0 0 1 0.4,2.89 3.5,3.5 0 0 1 -0.63,1.34 z m -5.64,0 a 3.78,3.78 0 0 0 1.19,0.29 7.17,7.17 0 0 0 1.44,-0.06 6.83,6.83 0 0 0 1.45,-0.37 3.73,3.73 0 0 0 1.08,-0.62 2.29,2.29 0 0 0 0.62,-0.86 2.15,2.15 0 0 0 0.11,-1.08 2.05,2.05 0 0 0 -0.46,-1.08 2.42,2.42 0 0 0 -0.92,-0.64 3.86,3.86 0 0 0 -1.19,-0.25 6.47,6.47 0 0 0 -1.37,0.05 6.61,6.61 0 0 0 -1.41,0.35 3.6,3.6 0 0 0 -1.07,0.61 2.31,2.31 0 0 0 -0.65,0.85 2.06,2.06 0 0 0 -0.12,1.12 2.13,2.13 0 0 0 0.43,1 2.16,2.16 0 0 0 0.87,0.65 z"
           transform="translate(-237.82,-327.82)"
           id="path22"
           style="fill:#ffffff" />
        <path
           class="cls-4"
           d="m 365.86,398.85 a 3.72,3.72 0 0 1 -1.32,0.79 4.72,4.72 0 0 1 -1.71,0.27 4.85,4.85 0 0 1 -1.7,-0.32 3.87,3.87 0 0 1 -1.29,-0.85 3.68,3.68 0 0 1 -1.07,-2.67 3.84,3.84 0 0 1 0.33,-1.52 3.52,3.52 0 0 1 0.87,-1.18 4.1,4.1 0 0 1 1.32,-0.77 4.76,4.76 0 0 1 1.65,-0.26 4.57,4.57 0 0 1 1.71,0.33 4,4 0 0 1 1.29,0.84 3.64,3.64 0 0 1 0.82,1.23 3.73,3.73 0 0 1 0.26,1.45 3.65,3.65 0 0 1 -0.31,1.47 3.75,3.75 0 0 1 -0.85,1.19 z m -5.57,-0.91 a 3.75,3.75 0 0 0 1.14,0.47 6.77,6.77 0 0 0 1.42,0.16 6.34,6.34 0 0 0 1.49,-0.14 3.69,3.69 0 0 0 1.16,-0.44 2.18,2.18 0 0 0 0.75,-0.76 2.1,2.1 0 0 0 0.28,-1.05 2,2 0 0 0 -0.29,-1.14 2.46,2.46 0 0 0 -0.8,-0.77 4.16,4.16 0 0 0 -1.14,-0.43 6.21,6.21 0 0 0 -1.38,-0.15 6.45,6.45 0 0 0 -1.44,0.12 3.44,3.44 0 0 0 -1.15,0.44 2.22,2.22 0 0 0 -0.78,0.74 2.18,2.18 0 0 0 -0.29,1.09 2.15,2.15 0 0 0 0.27,1.07 2.21,2.21 0 0 0 0.76,0.79 z"
           transform="translate(-237.82,-327.82)"
           id="path23"
           style="fill:#ffffff" />
        <path
           class="cls-4"
           d="m 360.12,407.18 -2.29,-0.52 0.95,-6.09 0.39,0.06 a 3.53,3.53 0 0 0 0,0.39 1.27,1.27 0 0 0 0,0.36 0.47,0.47 0 0 0 0.17,0.27 0.69,0.69 0 0 0 0.34,0.13 l 5.58,0.87 a 0.73,0.73 0 0 0 0.33,0 0.46,0.46 0 0 0 0.27,-0.21 2,2 0 0 0 0.19,-0.34 2,2 0 0 0 0.13,-0.36 l 0.39,0.06 -0.51,3.29 -0.39,-0.07 a 2.62,2.62 0 0 0 0,-0.4 1.64,1.64 0 0 0 0,-0.37 0.42,0.42 0 0 0 -0.18,-0.29 0.93,0.93 0 0 0 -0.33,-0.12 l -5.23,-0.82 a 3.45,3.45 0 0 0 -0.57,-0.05 0.46,0.46 0 0 0 -0.33,0.12 0.68,0.68 0 0 0 -0.19,0.35 6.55,6.55 0 0 0 -0.14,0.7 c 0,0.13 0,0.28 -0.06,0.42 -0.06,0.14 0,0.29 0,0.43 a 2,2 0 0 0 0,0.36 0.52,0.52 0 0 0 0.11,0.26 4.34,4.34 0 0 0 0.68,0.65 5.63,5.63 0 0 0 0.77,0.54 z"
           transform="translate(-237.82,-327.82)"
           id="path24"
           style="fill:#ffffff" />
      </g>
      <g
         id="下半圈"
         transform="matrix(0.18132149,0,0,0.18132149,12.078443,90.235812)">
        <path
           class="cls-4"
           d="m 259.19,425.79 c 0.51,-0.17 0.91,-0.29 1.2,-0.37 0.29,-0.08 0.5,-0.14 0.63,-0.18 a 0.73,0.73 0 0 1 0.39,-0.05 q 0.19,0 0.06,0.15 a 1.1,1.1 0 0 1 -0.28,0.18 l -0.58,0.27 -0.73,0.34 -1.09,0.49 -1.1,0.51 -0.37,0.2 a 4.85,4.85 0 0 0 -0.42,0.29 0.63,0.63 0 0 1 -0.48,0.17 c -0.14,0 -0.21,-0.09 -0.23,-0.18 a 0.72,0.72 0 0 1 0.09,-0.38 c 0.08,-0.19 0.14,-0.33 0.18,-0.4 l 0.17,-0.28 a 1,1 0 0 1 0.25,-0.35 0.21,0.21 0 0 1 0.21,0 l 0.23,0.13 h 0.21 0.12 z m 5.87,0.27 0.79,0.88 1,1.35 0.64,1 a 0.49,0.49 0 0 1 0.11,0.34 0.36,0.36 0 0 1 -0.19,0.17 0.24,0.24 0 0 1 -0.27,0 0.75,0.75 0 0 1 -0.15,-0.26 1.63,1.63 0 0 0 -0.29,-0.45 1.12,1.12 0 0 0 -0.37,-0.33 c -0.09,-0.05 -0.32,0 -0.68,0.21 -0.36,0.21 -0.81,0.49 -1.36,0.88 -0.27,0.18 -0.8,0.56 -1.6,1.15 -0.8,0.59 -1.26,0.91 -1.36,1 l -0.5,0.32 -0.66,0.32 a 2.8,2.8 0 0 1 -0.83,0.28 c -0.24,0 -0.37,0 -0.4,0 -0.03,0 0,-0.18 0.21,-0.4 l 0.42,-0.58 0.14,-0.16 c 0,0 0.08,-0.1 0.13,-0.18 0.05,-0.08 0.1,-0.12 0.14,-0.12 0.04,0 0.12,0 0.2,0.1 l 0.22,0.22 c 0.13,0.08 0.25,0.09 0.33,0 l 0.27,-0.15 0.9,-0.58 a 8,8 0 0 0 0.83,-0.65 c 0.35,-0.31 0.61,-0.52 0.76,-0.64 l 0.29,-0.22 0.58,-0.57 0.81,-0.79 a 0.89,0.89 0 0 0 0.29,-0.49 0.88,0.88 0 0 0 -0.26,-0.5 6.47,6.47 0 0 0 -0.88,-0.82 c -0.35,-0.28 -0.59,-0.47 -0.72,-0.59 a 1.31,1.31 0 0 1 -0.29,-0.36 1.64,1.64 0 0 1 -0.16,-0.38 0.28,0.28 0 0 1 0.17,-0.39 c 0.08,0 0.23,0 0.44,0.13 a 1.81,1.81 0 0 1 0.36,0.26 z m -1.74,0.39 0.27,0.25 a 0.75,0.75 0 0 1 0.18,0.18 0.59,0.59 0 0 1 0.07,0.14 v 0.14 l 0.26,0.44 a 1.7,1.7 0 0 1 0.25,0.54 0.31,0.31 0 0 1 -0.17,0.2 l -0.56,0.07 -0.45,0.1 c -0.15,0 -0.23,0 -0.25,0 v 0 0.16 c 0,0.05 -0.1,0.08 -0.23,0.1 a 0.4,0.4 0 0 1 -0.25,0 l -0.23,-0.16 -0.43,-0.3 -0.51,-0.34 h -0.08 l -0.34,-0.14 c -0.09,0 -0.15,-0.07 -0.16,-0.11 -0.01,-0.04 0,-0.15 0.09,-0.27 L 261,427 l 0.2,-0.32 0.25,-0.26 0.48,-0.65 0.2,-0.14 c 0.1,-0.08 0.18,0 0.22,0.17 a 0.57,0.57 0 0 1 0,0.19 2.24,2.24 0 0 1 -0.4,0.43 1.25,1.25 0 0 0 -0.42,0.56 0.61,0.61 0 0 0 0,0.34 1.08,1.08 0 0 0 0.31,0.29 l 0.35,0.26 a 0.7,0.7 0 0 0 0.31,0 0.9,0.9 0 0 0 0.48,-0.17 0.64,0.64 0 0 0 0.29,-0.39 0.43,0.43 0 0 0 -0.06,-0.34 l -0.18,-0.13 -0.11,-0.07 h -0.09 c -0.07,0 -0.12,-0.14 -0.12,-0.32 0,-0.18 0,-0.13 0,-0.14 l 0.1,-0.09 a 2.06,2.06 0 0 1 0.51,0.23 z m -2.45,-3.38 c 0,0 0.09,0 0.2,0 a 0.64,0.64 0 0 1 0.34,0.28 1.73,1.73 0 0 1 0.17,0.33 1,1 0 0 1 0.07,0.39 0.89,0.89 0 0 1 0,0.29 v 0.07 0.12 l -0.05,0.06 v 0 a 0.29,0.29 0 0 1 -0.12,0.14 l -0.19,0.12 c -0.07,0 -0.17,-0.1 -0.34,-0.36 a 0.73,0.73 0 0 1 -0.09,-0.18 0.62,0.62 0 0 1 0,-0.13 v -0.23 c 0,-0.05 0,-0.21 0,-0.5 a 1.44,1.44 0 0 1 0.01,-0.4 z m 2.59,1.34 a 0.38,0.38 0 0 1 -0.08,-0.16 1.72,1.72 0 0 1 0,-0.2 v -0.31 c 0,0 0,-0.16 0.13,-0.44 a 1.85,1.85 0 0 1 0.2,-0.53 0.29,0.29 0 0 1 0.19,-0.11 c 0.06,0 0.15,0.09 0.25,0.26 a 1.45,1.45 0 0 1 0.26,0.91 1.18,1.18 0 0 1 -0.28,0.5 q -0.21,0.21 -0.27,0.21 h -0.15 a 0.63,0.63 0 0 1 -0.25,-0.13 z"
           transform="translate(-237.82,-327.82)"
           id="path25"
           style="fill:#ffffff" />
        <path
           class="cls-4"
           d="m 274,439.9 a 0.15,0.15 0 0 1 0,-0.08 c 0,0 0.06,0 0.11,0 l 0.22,0.09 a 3.23,3.23 0 0 0 0.42,0.18 c 0.19,0.08 0.47,0.21 0.83,0.39 0.36,0.18 0.59,0.25 0.68,0.21 a 0.55,0.55 0 0 0 0.17,-0.11 c 0,0 0.11,-0.17 0.26,-0.42 l 0.83,-1.42 c 0.13,-0.22 0.2,-0.36 0.24,-0.43 0.04,-0.07 0.07,-0.12 0.12,-0.13 0.05,-0.01 0.12,0 0.24,0.1 a 1,1 0 0 1 0.37,0.55 0.94,0.94 0 0 1 0.07,0.43 0.52,0.52 0 0 1 -0.12,0.17 l -0.22,0.13 a 1.36,1.36 0 0 0 -0.29,0.26 l -0.41,0.56 -0.58,0.74 -0.78,1.13 -0.3,0.42 -0.52,0.84 -0.34,0.49 -0.13,0.23 -0.13,0.15 a 4.27,4.27 0 0 0 -0.29,0.41 l -0.26,0.41 -0.1,0.12 -0.17,0.23 a 1,1 0 0 1 -0.33,0.29 c -0.12,0.07 -0.21,0.08 -0.25,0 -0.04,-0.08 -0.05,-0.11 0,-0.25 a 0.89,0.89 0 0 1 0.09,-0.3 l 0.23,-0.28 0.72,-1.1 0.08,-0.15 -0.64,0.12 c -0.29,0 -0.62,0.1 -1,0.17 l -0.56,0.14 a 2,2 0 0 0 -0.44,0.2 q -0.18,0.1 -0.24,0.09 c 0,0 -0.07,-0.13 -0.08,-0.35 a 2.56,2.56 0 0 1 0,-0.47 1.68,1.68 0 0 0 0,-0.31 0.29,0.29 0 0 1 0,-0.18 0.24,0.24 0 0 1 0.13,-0.1 0.49,0.49 0 0 1 0.25,-0.06 l 1.43,0.06 a 2.82,2.82 0 0 0 0.44,0 h 0.34 0.33 l 0.51,-0.11 h 0.08 l 0.07,-0.07 0.06,-0.09 c 0.1,-0.15 0.16,-0.26 0.19,-0.31 l 0.16,-0.3 v 0 l 0.11,-0.14 v -0.08 l 0.19,-0.33 c 0,-0.07 -0.16,-0.14 -0.44,-0.24 l -0.62,-0.19 a 1.82,1.82 0 0 0 -0.31,-0.05 h -0.3 -0.12 a 0.28,0.28 0 0 1 -0.09,-0.1 2,2 0 0 1 0,-0.45 v -0.22 A 2.66,2.66 0 0 1 274,439.9 Z m 4,3.32 0.72,-0.18 c 0.18,-0.06 0.4,-0.14 0.66,-0.25 0.26,-0.11 0.46,-0.19 0.59,-0.25 a 1.64,1.64 0 0 0 0.39,-0.29 c 0.13,-0.13 0.21,-0.19 0.25,-0.18 0.04,0.01 0.08,0.09 0.15,0.22 l 0.13,0.23 a 4.08,4.08 0 0 1 0.25,0.45 1,1 0 0 1 0.13,0.35 0.19,0.19 0 0 1 -0.07,0.12 h -0.35 -0.2 -0.13 l -0.26,0.06 a 5.64,5.64 0 0 1 -0.77,0.08 l -1,0.08 H 278 a 0.62,0.62 0 0 0 -0.32,0 0.34,0.34 0 0 0 -0.11,0.14 3.71,3.71 0 0 1 -0.35,0.5 6.88,6.88 0 0 0 -0.57,0.87 1.81,1.81 0 0 0 -0.23,0.46 c 0,0.08 0,0.17 0,0.28 0,0.11 0,0.21 0,0.27 a 0.79,0.79 0 0 0 0.09,0.3 1.27,1.27 0 0 0 0.19,0.31 4,4 0 0 0 0.38,0.34 3.15,3.15 0 0 0 0.44,0.3 1.29,1.29 0 0 0 0.72,0.21 1.21,1.21 0 0 0 0.6,-0.14 0.65,0.65 0 0 1 0.34,-0.13 c 0.06,0 0.13,0.06 0.2,0.16 a 1.94,1.94 0 0 1 0.16,0.57 4.07,4.07 0 0 1 0.09,0.57 0.4,0.4 0 0 1 0,0.18 c -0.07,0.09 -0.35,0.05 -0.85,-0.12 a 9.39,9.39 0 0 1 -1.53,-0.71 5.25,5.25 0 0 1 -0.86,-0.65 1.94,1.94 0 0 1 -0.53,-0.72 1.82,1.82 0 0 1 -0.05,-0.79 2.44,2.44 0 0 1 0.27,-0.84 8.46,8.46 0 0 1 0.48,-0.8 l 0.76,-1.1 c 0.55,-0.8 1,-1.5 1.33,-2.09 0.33,-0.59 0.57,-1 0.73,-1.24 0.16,-0.24 0.26,-0.4 0.31,-0.48 a 0.63,0.63 0 0 1 0.11,-0.18 0.22,0.22 0 0 1 0.32,0 0.62,0.62 0 0 1 0.12,0.23 l 0.14,0.3 c 0,0.1 0.08,0.22 0.12,0.35 a 0.47,0.47 0 0 1 0,0.27 c 0,0 -0.15,0.14 -0.42,0.28 a 1.24,1.24 0 0 0 -0.42,0.41 l -0.63,0.81 a 8.07,8.07 0 0 0 -0.59,0.83 3.57,3.57 0 0 1 -0.28,0.43 c -0.1,0.15 -0.16,0.18 -0.11,0.18 z"
           transform="translate(-237.82,-327.82)"
           id="path26"
           style="fill:#ffffff" />
        <path
           class="cls-4"
           d="m 293.57,452 -0.05,1.2 v 0.58 l -0.05,0.71 a 0.83,0.83 0 0 1 -0.07,0.34 c 0,0.11 -0.1,0.16 -0.16,0.14 -0.06,-0.02 -0.12,-0.07 -0.15,-0.18 a 5.61,5.61 0 0 1 0,-1.07 v -1.36 c 0,-0.4 0,-0.7 0,-0.93 a 2.06,2.06 0 0 1 0,-0.42 v -0.19 a 3.46,3.46 0 0 1 0.11,-0.44 0.28,0.28 0 0 1 0.38,-0.2 c 0.12,0 0.16,0.2 0.11,0.5 -0.05,0.3 -0.09,0.57 -0.11,0.83 -0.02,0.26 -0.01,0.39 -0.01,0.49 z m 5.19,-4.45 c 0.65,0.06 1,0.18 1.14,0.33 0.14,0.15 0.15,0.26 0.14,0.32 a 0.26,0.26 0 0 1 -0.09,0.18 0.44,0.44 0 0 1 -0.24,0.1 6.81,6.81 0 0 1 -0.84,-0.07 l -1.06,-0.11 h -0.65 c -0.23,0.46 -0.46,0.9 -0.71,1.31 0.41,0 0.67,0 0.78,0 l 0.64,0.13 0.86,0.18 0.57,0.13 0.44,0.13 0.64,0.14 c 0.15,0.05 0.23,0.1 0.25,0.15 0.02,0.05 0,0.16 -0.08,0.33 l -0.22,0.57 -0.27,0.61 a 10.05,10.05 0 0 0 -0.35,1.13 c -0.12,0.51 -0.21,0.85 -0.27,1 a 10,10 0 0 1 -0.47,1 c -0.25,0.5 -0.43,0.83 -0.52,1 -0.09,0.17 -0.17,0.23 -0.24,0.23 a 0.21,0.21 0 0 1 -0.16,-0.08 0.85,0.85 0 0 1 -0.1,-0.33 l -0.07,-0.51 a 4.52,4.52 0 0 1 -0.06,-0.53 0.82,0.82 0 0 1 0,-0.34 0.15,0.15 0 0 1 0.09,-0.06 h 0.31 a 0.52,0.52 0 0 0 0.41,-0.3 3.86,3.86 0 0 0 0.3,-0.84 9,9 0 0 0 0.25,-1.19 6.88,6.88 0 0 0 0.08,-0.83 1.15,1.15 0 0 0 -0.08,-0.6 0.68,0.68 0 0 0 -0.43,-0.26 1.91,1.91 0 0 0 -0.43,-0.06 0.92,0.92 0 0 0 -0.38,0 2.11,2.11 0 0 0 -0.38,0.38 c -0.18,0.21 -0.24,0.35 -0.2,0.42 a 0.33,0.33 0 0 0 0.17,0.11 l 0.3,0.07 a 0.33,0.33 0 0 1 0.2,0.2 0.32,0.32 0 0 1 0,0.27 0.37,0.37 0 0 1 -0.18,0.19 1.32,1.32 0 0 1 -0.62,-0.05 c -0.32,-0.07 -0.52,-0.08 -0.59,0 a 0.6,0.6 0 0 0 -0.13,0.28 l -0.06,0.24 c 0.75,0 1.19,0 1.31,0.23 0.12,0.23 0.14,0.33 0,0.44 a 1.8,1.8 0 0 1 -0.77,0.06 2.65,2.65 0 0 0 -0.75,0 0.65,0.65 0 0 0 -0.09,0.26 l -0.32,1.37 a 5.62,5.62 0 0 1 -0.2,0.64 c -0.06,0.15 -0.13,0.21 -0.19,0.19 a 0.25,0.25 0 0 1 -0.14,-0.17 0.83,0.83 0 0 1 0,-0.39 l 0.18,-1.5 c 0.06,-0.16 0.08,-0.26 0.06,-0.29 -0.02,-0.03 0,-0.07 0,-0.08 0,-0.01 -0.12,0 -0.26,0 a 0.82,0.82 0 0 1 -0.44,0 1.1,1.1 0 0 1 -0.47,-0.15 0.37,0.37 0 0 1 -0.11,-0.29 c 0,-0.12 0.11,-0.24 0.34,-0.33 a 1.68,1.68 0 0 1 0.55,-0.06 c 0.27,0 0.43,0 0.48,-0.08 a 0.23,0.23 0 0 0 0.06,-0.2 0.28,0.28 0 0 0 -0.12,-0.2 0.7,0.7 0 0 0 -0.45,0 1.54,1.54 0 0 1 -0.55,0 0.61,0.61 0 0 1 -0.23,-0.09 0.34,0.34 0 0 1 -0.12,-0.24 0.57,0.57 0 0 1 0,-0.2 c 0,-0.06 0.09,-0.12 0.23,-0.16 a 2.28,2.28 0 0 0 0.32,-0.13 0.93,0.93 0 0 1 -0.08,-0.51 c 0,-0.2 0,-0.31 0,-0.31 h -0.09 a 0.53,0.53 0 0 1 -0.23,0 0.48,0.48 0 0 1 -0.21,-0.12 0.22,0.22 0 0 1 0,-0.16 0.27,0.27 0 0 1 0.14,-0.18 0.66,0.66 0 0 1 0.27,-0.12 l 0.38,-0.07 a 1.62,1.62 0 0 0 0.35,-0.12 1.38,1.38 0 0 0 0.3,-0.15 0.66,0.66 0 0 0 0.19,-0.23 l 0.28,-0.63 c 0.1,-0.21 0.14,-0.32 0.11,-0.35 h -0.36 c -0.07,0 -0.31,0 -0.72,0 a 2.2,2.2 0 0 1 -0.9,-0.09 0.92,0.92 0 0 1 -0.32,-0.21 0.39,0.39 0 0 1 -0.12,-0.39 c 0,-0.21 0.22,-0.33 0.55,-0.35 h 0.56 l 1.06,0.06 h 0.19 a 1.46,1.46 0 0 0 0.39,0 0.88,0.88 0 0 0 0.12,-0.4 l 0.21,-0.86 c 0.07,-0.34 0.13,-0.56 0.16,-0.66 a 0.38,0.38 0 0 1 0.13,-0.18 0.34,0.34 0 0 1 0.23,0 l 0.18,0.09 c 0.28,0.13 0.43,0.22 0.45,0.28 a 0.54,0.54 0 0 1 -0.05,0.27 l -0.24,0.61 -0.34,0.93 z m -3.37,2.81 a 1.36,1.36 0 0 1 0.17,0.24 0.88,0.88 0 0 1 0,0.36 c 0,0.18 0,0.28 0,0.29 0,0.01 0.12,0 0.32,0 h 0.53 a 0.51,0.51 0 0 0 0.21,-0.17 l 0.07,-0.26 v -0.08 c 0,-0.12 0,-0.2 0,-0.26 a 0.42,0.42 0 0 0 -0.29,-0.1 5.24,5.24 0 0 0 -0.69,0 1.72,1.72 0 0 1 -0.32,-0.05 z"
           transform="translate(-237.82,-327.82)"
           id="path27"
           style="fill:#ffffff" />
        <path
           class="cls-4"
           d="m 315.93,446.42 -0.14,-0.18 a 3.46,3.46 0 0 0 -0.22,-0.31 0.43,0.43 0 0 1 -0.11,-0.25 c 0,-0.11 0.06,-0.19 0.19,-0.24 a 1.06,1.06 0 0 1 0.42,0 4,4 0 0 1 0.46,0.05 0.78,0.78 0 0 1 0.37,0.25 c 0.13,0.14 0.21,0.2 0.25,0.19 l 1.06,-0.25 a 4.37,4.37 0 0 1 0.76,-0.07 4.08,4.08 0 0 0 0.55,0 l 0.17,-0.1 a 0.44,0.44 0 0 1 0.15,-0.09 0.25,0.25 0 0 1 0.17,0 2,2 0 0 1 0.32,0.14 5.53,5.53 0 0 0 0.68,0.26 c 0.3,0.09 0.44,0.2 0.43,0.32 a 0.31,0.31 0 0 1 -0.09,0.18 0.66,0.66 0 0 1 -0.22,0.16 c -0.1,0.05 -0.34,0.19 -0.7,0.42 -0.36,0.23 -0.58,0.32 -0.64,0.26 a 0.37,0.37 0 0 1 -0.1,-0.26 v -0.62 a 0.52,0.52 0 0 0 -0.06,-0.13 0.22,0.22 0 0 0 -0.23,-0.07 4.65,4.65 0 0 0 -1.09,0.08 3.89,3.89 0 0 0 -0.53,0.17 0.86,0.86 0 0 0 -0.34,0.19 1.21,1.21 0 0 0 0,0.35 0.8,0.8 0 0 1 0,0.39 0.5,0.5 0 0 1 -0.34,0.17 q -0.31,0.08 -0.36,0 l -0.44,-0.49 a 6.89,6.89 0 0 0 -0.75,0.48 4.46,4.46 0 0 0 -0.48,0.4 1.3,1.3 0 0 0 -0.24,0.49 3.47,3.47 0 0 0 -0.14,0.7 c 0,0.23 0,0.39 0,0.48 v 0.16 0.33 c -0.09,0.15 -0.21,0.18 -0.34,0.08 -0.13,-0.1 -0.12,-0.18 -0.16,-0.41 l -0.16,-0.53 a 2.08,2.08 0 0 1 -0.08,-0.39 2.86,2.86 0 0 1 0,-0.44 c 0,-0.24 0,-0.51 0,-0.8 0,-0.29 0.07,-0.46 0.14,-0.48 a 0.24,0.24 0 0 1 0.23,0.08 l 0.16,0.2 0.46,-0.27 z m -0.53,2.37 a 0.33,0.33 0 0 1 0,-0.18 c 0,0 0.14,0 0.34,0.11 a 1.24,1.24 0 0 1 0.37,0.34 l 0.14,0.29 a 2.59,2.59 0 0 0 0.32,0.52 0.67,0.67 0 0 0 0.36,0 l 0.16,-0.05 0.64,-0.24 0.44,-0.29 a 2.48,2.48 0 0 0 0.45,-0.3 0.52,0.52 0 0 0 0.14,-0.46 0.86,0.86 0 0 0 -0.11,-0.42 0.5,0.5 0 0 0 -0.49,-0.06 1.46,1.46 0 0 0 -0.38,0.18 l -0.44,0.31 a 1,1 0 0 1 -0.26,0.08 2.16,2.16 0 0 1 -0.51,0.07 c -0.18,0 -0.27,0 -0.27,-0.07 0,-0.07 0,-0.08 0.11,-0.17 a 1.28,1.28 0 0 1 0.31,-0.24 5.6,5.6 0 0 1 0.49,-0.34 1.83,1.83 0 0 1 1.31,-0.32 l 0.6,-0.12 a 2.22,2.22 0 0 1 0.38,-0.07 0.42,0.42 0 0 1 0.27,0.06 c 0.08,0.05 0.13,0.1 0.14,0.14 0.01,0.04 0,0.14 -0.1,0.28 a 1.13,1.13 0 0 0 -0.09,0.2 l -0.09,0.43 a 3.67,3.67 0 0 0 -0.09,0.41 0.27,0.27 0 0 0 0,0.09 0.56,0.56 0 0 0 0,0.12 0.22,0.22 0 0 0 0,0.09 c 0,0.18 -0.09,0.36 -0.37,0.52 l -1.17,0.39 -0.38,0.2 -0.53,0.29 c 0,0.08 0.05,0.16 0.07,0.23 a 0.17,0.17 0 0 1 -0.09,0.18 c -0.07,0.05 -0.22,0 -0.43,-0.25 a 3.13,3.13 0 0 1 -0.35,-0.38 l -0.6,-1 z m 1,3.2 0.6,1.11 a 4.37,4.37 0 0 0 0.32,0.52 c 0.15,0.21 0.27,0.33 0.37,0.36 a 1.3,1.3 0 0 0 0.58,-0.08 5.62,5.62 0 0 0 1,-0.36 3.26,3.26 0 0 0 0.9,-0.5 0.71,0.71 0 0 0 0.31,-0.51 3.71,3.71 0 0 0 0,-0.64 1.06,1.06 0 0 0 -0.13,-0.47 0.82,0.82 0 0 0 -0.71,-0.13 3.31,3.31 0 0 0 -0.65,0.15 2.68,2.68 0 0 0 -0.35,0.21 c -0.18,0.11 -0.4,0.23 -0.68,0.37 a 1.8,1.8 0 0 1 -0.53,0.2 0.16,0.16 0 0 1 -0.17,-0.08 c 0,-0.05 0,-0.13 0,-0.23 a 1.4,1.4 0 0 1 0.35,-0.35 l 0.92,-0.51 0.41,-0.23 a 2,2 0 0 1 0.48,-0.1 l 0.4,-0.05 a 4.19,4.19 0 0 0 0.49,-0.17 l 0.42,-0.15 h 0.23 a 1.35,1.35 0 0 1 0.38,0.05 c 0.11,0 0.18,0.07 0.2,0.12 a 0.36,0.36 0 0 1 0,0.21 l -0.07,0.31 -0.19,1.11 c 0,0.22 -0.06,0.37 -0.07,0.45 a 0.77,0.77 0 0 0 0,0.25 1,1 0 0 0 0.1,0.22 1.19,1.19 0 0 1 0.1,0.2 0.28,0.28 0 0 1 -0.06,0.19 1.18,1.18 0 0 1 -0.66,0.35 l -0.46,0.12 h -0.06 l -0.31,0.12 h -0.05 -0.18 l -0.5,0.2 h -0.11 -0.11 l -0.1,0.05 h -0.15 a 0.87,0.87 0 0 0 -0.33,0.17 0.45,0.45 0 0 0 -0.21,0.24 l -0.05,0.2 c 0,0.08 -0.07,0.13 -0.13,0.14 -0.06,0.01 -0.12,0 -0.22,-0.13 a 1.3,1.3 0 0 1 -0.26,-0.31 l -0.74,-1.14 -0.27,-0.39 -0.23,-0.32 -0.17,-0.22 -0.19,-0.21 a 0.85,0.85 0 0 1 -0.14,-0.5 c 0,-0.2 0,-0.31 0.07,-0.33 0.07,-0.02 0.09,0 0.12,0 l 0.39,0.26 z"
           transform="translate(-237.82,-327.82)"
           id="path28"
           style="fill:#ffffff" />
        <path
           class="cls-4"
           d="m 335.75,439.48 h -0.07 l -0.29,0.44 a 0.38,0.38 0 0 1 -0.09,0.09 1.18,1.18 0 0 1 -0.23,0.14 1.46,1.46 0 0 1 -0.32,0.09 0.55,0.55 0 0 1 -0.27,0 0.15,0.15 0 0 1 -0.07,-0.12 0.66,0.66 0 0 1 0.17,-0.42 2.37,2.37 0 0 1 0.47,-0.48 c 0.17,-0.14 0.26,-0.24 0.25,-0.3 a 0.48,0.48 0 0 0 -0.08,-0.19 3,3 0 0 0 -0.36,-0.47 l -0.56,-0.68 -0.13,-0.16 -0.19,-0.2 A 0.21,0.21 0 0 1 333.9,437.08 0.18,0.18 0 0 1 334,437 c 0,-0.06 0.22,-0.12 0.53,-0.18 l 0.28,-0.06 a 0.37,0.37 0 0 1 0.19,0 c 0.05,0 0.11,0.1 0.18,0.25 a 4.48,4.48 0 0 0 0.26,0.47 l 0.14,0.2 0.12,0.22 0.23,0.3 0.09,0.13 0.63,-0.51 1.18,-0.67 0.54,-0.34 a 2,2 0 0 1 0.41,-0.14 q 0.24,0 0.27,0 a 0.15,0.15 0 0 1 0,0.07 v 0.38 0.16 c 0,0.1 0.06,0.23 0.09,0.38 0.03,0.15 0.07,0.33 0.12,0.53 a 2,2 0 0 1 0.07,0.42 0.23,0.23 0 0 0 0,0.14 l 0.23,0.06 c 0.1,0.05 0.12,0.15 0.07,0.3 a 0.27,0.27 0 0 1 -0.11,0.16 l -0.34,0.25 -0.71,0.53 c -0.14,0.11 -0.28,0.22 -0.4,0.33 a 2.62,2.62 0 0 1 -0.32,0.26 0.43,0.43 0 0 0 -0.16,0.26 c 0,0.11 0.15,0.36 0.54,0.76 l 1,1.48 0.76,1 c 0.06,0.1 0.16,0.3 0.31,0.59 0.15,0.29 0.17,0.48 0.05,0.54 -0.12,0.06 -0.27,0 -0.46,-0.29 l -0.71,-0.91 -0.08,-0.07 -0.84,-1.2 -0.27,-0.38 -0.41,-0.57 -0.24,-0.34 -0.07,-0.08 -0.1,-0.09 a 1.45,1.45 0 0 0 -0.24,0.2 l -0.17,0.21 -0.38,0.36 a 0.37,0.37 0 0 0 -0.07,0.14 v 0.21 a 0.3,0.3 0 0 1 -0.18,0.17 0.79,0.79 0 0 1 -0.44,-0.06 l -0.2,-0.05 a 2.39,2.39 0 0 1 -0.61,-0.26 c -0.2,-0.11 -0.4,-0.23 -0.62,-0.38 -0.22,-0.15 -0.43,-0.28 -0.62,-0.41 l -0.41,-0.26 A 0.23,0.23 0 0 1 333,441 a 0.45,0.45 0 0 1 0,-0.13 0.24,0.24 0 0 1 0.09,-0.08 1,1 0 0 1 0.28,-0.08 1.47,1.47 0 0 1 0.36,0 0.93,0.93 0 0 1 0.38,0.15 l 0.85,0.72 a 0.79,0.79 0 0 0 0.37,0.16 0.62,0.62 0 0 0 0.41,-0.17 2.56,2.56 0 0 0 0.33,-0.26 l 0.11,-0.12 0.51,-0.43 -0.06,-0.08 v -0.13 l -0.68,-0.91 z m 1.25,0.52 0.13,0.21 a 0.17,0.17 0 0 0 0.12,0 l 0.45,-0.36 a 0.63,0.63 0 0 0 -0.14,0.1 l 0.39,-0.33 0.24,-0.28 a 1.34,1.34 0 0 0 0.28,-0.32 c 0,-0.07 0,-0.2 -0.06,-0.38 a 1.62,1.62 0 0 0 -0.21,-0.42 2.56,2.56 0 0 0 -0.2,-0.26 0.65,0.65 0 0 0 -0.23,-0.14 0.61,0.61 0 0 0 -0.35,0.11 4.19,4.19 0 0 0 -0.61,0.42 l -0.51,0.48 z"
           transform="translate(-237.82,-327.82)"
           id="path29"
           style="fill:#ffffff" />
        <path
           class="cls-4"
           d="m 348.48,425.05 -0.08,0.09 a 1.09,1.09 0 0 1 -0.34,0.19 l -0.34,0.11 -0.29,0.05 a 1.19,1.19 0 0 1 -0.29,0.08 h -0.27 -0.07 -0.1 -0.28 a 0.12,0.12 0 0 1 -0.06,-0.16 1.07,1.07 0 0 1 0.32,-0.38 l 0.3,-0.27 a 1.05,1.05 0 0 1 0.72,-0.21 1.18,1.18 0 0 1 0.6,0.18 0.32,0.32 0 0 1 0.18,0.32 z m 0.85,-1.44 -0.29,-0.31 -0.42,-0.94 c -0.15,-0.32 -0.25,-0.49 -0.33,-0.52 a 0.59,0.59 0 0 0 -0.27,0 0.46,0.46 0 0 0 -0.3,0.19 0.49,0.49 0 0 0 -0.1,0.22 0.79,0.79 0 0 0 0.05,0.37 1.25,1.25 0 0 0 0.27,0.49 1.09,1.09 0 0 1 0.2,0.31 0.41,0.41 0 0 1 -0.06,0.2 0.4,0.4 0 0 1 -0.14,0.15 0.77,0.77 0 0 1 -0.27,0.06 h -0.37 a 0.65,0.65 0 0 1 -0.24,0 0.43,0.43 0 0 1 -0.18,-0.09 q -0.15,-0.18 0.18,-0.36 l 0.4,-1.08 a 0.59,0.59 0 0 1 0.05,-0.13 l 0.2,-0.24 a 2.41,2.41 0 0 0 0.21,-0.28 l 0.19,-0.3 a 2,2 0 0 1 0.59,-0.47 1.79,1.79 0 0 1 0.55,-0.26 c 0.09,0 0.15,0 0.17,0 0.02,0 0,0.07 0,0.18 a 1.2,1.2 0 0 0 0,0.27 3,3 0 0 1 0,0.33 c 0,0.14 0,0.32 0,0.52 l 0.11,1.11 c 0.21,-0.33 0.42,-0.63 0.62,-0.92 0.2,-0.29 0.32,-0.46 0.35,-0.52 a 2.9,2.9 0 0 0 0.2,-0.36 1.29,1.29 0 0 1 0.17,-0.29 4.42,4.42 0 0 1 0.46,-0.3 l 0.57,-0.37 a 0.38,0.38 0 0 1 0.31,0 c 0.07,0 0.11,0.14 0.11,0.32 l -0.19,0.64 -0.09,0.51 a 2.51,2.51 0 0 1 -0.16,0.6 c 0,0 -0.1,0 -0.19,0 -0.09,0 -0.09,-0.07 -0.15,-0.17 a 0.66,0.66 0 0 0 -0.22,-0.22 l -0.18,-0.06 a 0.84,0.84 0 0 0 -0.28,0 c -0.11,0 -0.26,0.24 -0.46,0.67 0,0.09 -0.15,0.28 -0.31,0.57 -0.16,0.29 -0.29,0.53 -0.39,0.74 -0.1,0.21 -0.24,0.59 -0.44,1.14 a 11.15,11.15 0 0 0 -0.35,1.12 4.14,4.14 0 0 0 -0.1,0.63 0.76,0.76 0 0 0 0.28,0.64 l 0.4,0.35 c 0.3,0.29 0.36,0.47 0.18,0.53 a 0.94,0.94 0 0 1 -0.7,-0.12 l -0.73,-0.37 a 2.48,2.48 0 0 1 -0.57,-0.52 c -0.23,-0.25 -0.32,-0.41 -0.3,-0.47 l 0.11,-0.1 0.12,-0.07 h 0.37 a 0.35,0.35 0 0 0 0.2,-0.14 1.32,1.32 0 0 0 0.16,-0.41 c 0.06,-0.21 0.13,-0.41 0.21,-0.62 0.08,-0.21 0.38,-0.84 0.79,-1.85 z m 2.24,2.66 -0.33,0.18 h -0.16 a 0.29,0.29 0 0 1 -0.14,0 c 0,0 0,-0.08 0,-0.21 l 0.11,-0.24 a 1,1 0 0 1 0.18,-0.3 c 0.06,-0.07 0.08,-0.1 0.08,-0.11 0,-0.01 0,-0.16 -0.14,-0.39 l -0.07,-0.17 -0.18,-0.27 a 6.23,6.23 0 0 0 -0.21,0.73 c 0,0.15 -0.07,0.27 -0.09,0.36 a 1.94,1.94 0 0 0 -0.07,0.32 0.67,0.67 0 0 1 0,0.19 0.16,0.16 0 0 1 -0.1,0.08 l -0.35,0.09 a 0.9,0.9 0 0 1 -0.4,0 0.26,0.26 0 0 1 -0.13,-0.08 c 0,0 0,-0.14 0,-0.3 a 5.8,5.8 0 0 0 0.25,-0.77 4.35,4.35 0 0 1 0.38,-1 4.06,4.06 0 0 0 0.27,-0.54 v -0.38 c 0,-0.09 0.12,-0.19 0.31,-0.29 l 0.46,-0.27 c 0.15,-0.07 0.25,-0.09 0.31,-0.06 a 0.26,0.26 0 0 1 0.14,0.18 1.65,1.65 0 0 1 0,0.56 4.77,4.77 0 0 0 0.12,1.38 2.14,2.14 0 0 1 0.36,-0.07 h 0.1 c 0.07,0 0.14,-0.05 0.2,-0.15 a 0.64,0.64 0 0 0 0.08,-0.14 6,6 0 0 1 0.31,-0.56 l 0.47,-0.9 c 0.14,-0.24 0.27,-0.38 0.4,-0.42 a 0.41,0.41 0 0 1 0.25,0 q 0.12,0.09 0,0.39 l -0.16,0.47 -0.4,0.71 a 3.79,3.79 0 0 0 -0.34,0.69 0.38,0.38 0 0 0 0.05,0.26 0.83,0.83 0 0 0 0.34,0.2 3.38,3.38 0 0 1 0.68,0.37 l 0.55,0.38 0.33,0.24 0.36,0.28 0.53,0.46 a 1.33,1.33 0 0 1 0.45,0.51 c 0,0.13 0.05,0.22 0,0.26 -0.05,0.04 -0.14,0.06 -0.31,0 l -0.46,-0.08 a 6.52,6.52 0 0 1 -1.09,-0.2 0.13,0.13 0 0 1 0,-0.1 0.57,0.57 0 0 1 0.07,-0.2 0.62,0.62 0 0 0 0,-0.36 0.7,0.7 0 0 0 -0.13,-0.32 1.2,1.2 0 0 0 -0.26,-0.24 l -0.19,-0.12 -0.74,-0.36 a 0.61,0.61 0 0 0 -0.42,-0.1 c -0.08,0 -0.15,0.14 -0.23,0.33 l -0.15,0.47 c 0,0.15 -0.11,0.4 -0.2,0.76 -0.09,0.36 -0.16,0.68 -0.24,0.95 a 1.66,1.66 0 0 1 -0.18,0.5 0.76,0.76 0 0 1 -0.49,0.26 2.13,2.13 0 0 1 -0.41,0 0.19,0.19 0 0 1 -0.14,-0.12 0.32,0.32 0 0 1 0,-0.21 l 0.08,-0.2 0.3,-0.82 0.31,-0.88 0.27,-0.63 0.22,-0.53 a 2.8,2.8 0 0 1 -0.41,0.53 z"
           transform="translate(-237.82,-327.82)"
           id="path30"
           style="fill:#ffffff" />
      </g>
      <g
         id="_1900"
         data-name="1900"
         transform="matrix(0.18132149,0,0,0.18132149,12.078443,90.235812)"
         style="fill:#0095ff">
        <path
           class="cls-5"
           d="m 298.25,435.34 h -0.9 v -5 a 3.36,3.36 0 0 1 -1.69,0.33 V 430 c 1.1,0 1.73,-0.39 1.9,-1.16 h 0.69 z"
           transform="translate(-237.82,-327.82)"
           id="path31"
           style="fill:#0095ff" />
        <path
           class="cls-5"
           d="m 304.22,432.38 a 2.18,2.18 0 0 1 -1.6,0.7 2,2 0 0 1 -1.48,-0.58 2,2 0 0 1 -0.61,-1.49 2.18,2.18 0 0 1 0.6,-1.55 2.34,2.34 0 0 1 3.37,0.16 3.65,3.65 0 0 1 0.63,2.31 q 0,3.52 -2.48,3.52 a 2.16,2.16 0 0 1 -1.33,-0.4 1.73,1.73 0 0 1 -0.67,-1.2 h 0.93 a 1,1 0 0 0 1.12,0.95 1.2,1.2 0 0 0 1.05,-0.62 3.89,3.89 0 0 0 0.47,-1.8 z m 0,-0.63 a 3.08,3.08 0 0 0 -0.42,-1.7 1.23,1.23 0 0 0 -1.06,-0.59 1.15,1.15 0 0 0 -0.93,0.43 1.62,1.62 0 0 0 -0.35,1.07 1.59,1.59 0 0 0 0.35,1.06 1.2,1.2 0 0 0 1,0.42 2.09,2.09 0 0 0 1.42,-0.69 z"
           transform="translate(-237.82,-327.82)"
           id="path32"
           style="fill:#0095ff" />
        <path
           class="cls-5"
           d="m 308.39,428.82 c 1.53,0 2.29,1.11 2.29,3.32 0,2.21 -0.76,3.31 -2.29,3.31 -1.53,0 -2.28,-1.1 -2.28,-3.31 0,-2.21 0.76,-3.32 2.28,-3.32 z m 0,6 a 1.09,1.09 0 0 0 1,-0.58 6.36,6.36 0 0 0 0,-4.16 1.14,1.14 0 0 0 -2,0 6.36,6.36 0 0 0 0,4.16 1.09,1.09 0 0 0 1,0.56 z"
           transform="translate(-237.82,-327.82)"
           id="path33"
           style="fill:#0095ff" />
        <path
           class="cls-5"
           d="m 315.31,432.38 a 2.16,2.16 0 0 1 -1.59,0.7 2,2 0 0 1 -1.48,-0.58 2,2 0 0 1 -0.61,-1.49 2.18,2.18 0 0 1 0.6,-1.55 2.07,2.07 0 0 1 1.6,-0.64 2.11,2.11 0 0 1 1.77,0.8 3.65,3.65 0 0 1 0.63,2.31 c 0,2.35 -0.83,3.52 -2.48,3.52 a 2.19,2.19 0 0 1 -1.34,-0.4 1.75,1.75 0 0 1 -0.66,-1.2 h 0.93 a 1,1 0 0 0 1.12,0.95 1.17,1.17 0 0 0 1,-0.62 3.77,3.77 0 0 0 0.51,-1.8 z m 0,-0.63 a 3.18,3.18 0 0 0 -0.41,-1.7 1.24,1.24 0 0 0 -1.06,-0.59 1.18,1.18 0 0 0 -0.94,0.43 1.68,1.68 0 0 0 -0.35,1.07 1.55,1.55 0 0 0 0.36,1.06 1.2,1.2 0 0 0 1,0.42 2.07,2.07 0 0 0 1.41,-0.69 z"
           transform="translate(-237.82,-327.82)"
           id="path34"
           style="fill:#0095ff" />
      </g>
      <g
         id="中南"
         transform="matrix(0.18132149,0,0,0.18132149,12.078443,90.235812)">
        <path
           class="cls-4"
           d="m 288.93,381.94 q 1.08,0 1.08,1 c 0.12,1.59 0.18,3.52 0.18,5.77 h 2.54 a 17,17 0 0 1 5.07,1.13 q 1.81,0.84 2,4.08 a 5.79,5.79 0 0 1 -1.45,3.52 6.88,6.88 0 0 1 -4.89,1.83 H 290 q 0,4.1 0.18,7.75 v 6.05 q -0.18,1.41 -0.9,1.41 c -0.49,0.1 -0.79,-0.33 -0.91,-1.26 v -1.42 q -0.18,-2.12 -0.18,-3.24 v -4.09 c 0.12,-2.25 0.18,-4 0.18,-5.21 H 284 a 8,8 0 0 1 -4.35,-2 6,6 0 0 1 -1.45,-3 4.7,4.7 0 0 1 0.18,-2.95 2.45,2.45 0 0 1 1.63,-1.55 A 9.47,9.47 0 0 1 283,389 h 0.18 a 39.85,39.85 0 0 1 4.89,-0.28 c 0,-2.53 0.06,-4.41 0.18,-5.63 -0.05,-0.87 0.19,-1.24 0.68,-1.15 z m -3.81,15.77 h 3.26 v -3.94 c -0.12,-1.59 -0.18,-2.72 -0.18,-3.38 h -1.27 a 14.35,14.35 0 0 0 -4.71,0.56 2.73,2.73 0 0 0 -2,2.12 5.28,5.28 0 0 0 0.91,3.38 7,7 0 0 0 3.99,1.26 z m 10,-7 a 42.89,42.89 0 0 0 -4.89,-0.28 v 7.32 c 2.54,0 4.23,0 5.07,-0.14 a 3.27,3.27 0 0 0 2.36,-2.11 7.38,7.38 0 0 0 0,-3.24 c -0.28,-0.79 -1.13,-1.26 -2.58,-1.59 z"
           transform="translate(-237.82,-327.82)"
           id="path35"
           style="fill:#ffffff" />
        <path
           class="cls-4"
           d="m 311.77,388.7 c 0.12,-0.37 0.24,-0.56 0.36,-0.56 a 1,1 0 0 1 0.73,0.42 11.65,11.65 0 0 1 2.53,4.37 v 0.14 c 0.49,-0.1 1.27,-0.19 2.36,-0.29 a 21.82,21.82 0 0 1 2.35,-0.28 20.85,20.85 0 0 1 2.54,-0.14 v -1.55 c 0,-0.47 -0.49,-0.89 -1.45,-1.26 a 11.13,11.13 0 0 1 -3.62,-2.12 6.29,6.29 0 0 1 -1.81,-3.66 c 0.12,-1.12 0.48,-1.78 1.08,-2 a 1.13,1.13 0 0 1 0.91,1 4.35,4.35 0 0 0 1.27,3.66 8.53,8.53 0 0 0 2.17,1.26 q 0.72,0.29 0.9,0.15 a 0.68,0.68 0 0 0 0.37,-0.71 c 0,-0.47 0.06,-1.31 0.18,-2.53 v -2 c 0,-0.94 0.3,-1.51 0.9,-1.69 0.85,0.09 1.27,0.65 1.27,1.69 v 2.11 a 18.25,18.25 0 0 0 -0.18,2.11 v 0.56 c 0,0.57 0.48,0.66 1.45,0.28 l 0.18,-0.14 a 9.22,9.22 0 0 0 1.63,-1.26 4.79,4.79 0 0 0 1.27,-3.52 q 0.18,-1 0.72,-1 c 0.36,0 0.66,0.33 0.91,1 a 5.87,5.87 0 0 1 -1.81,4.92 8.74,8.74 0 0 1 -2.9,1.84 0.61,0.61 0 0 1 -0.36,0.14 c -0.85,0.19 -1.27,0.56 -1.27,1.12 v 1.55 h 2.35 a 4,4 0 0 1 0.73,0.14 11.8,11.8 0 0 1 2.9,0.43 v -0.43 a 6.92,6.92 0 0 1 1.63,-3.8 1.09,1.09 0 0 1 1.08,0 1.78,1.78 0 0 1 0.18,2.25 8.68,8.68 0 0 0 -1.08,2.82 14.73,14.73 0 0 0 -0.36,5.63 98.16,98.16 0 0 0 2,10 q 0.18,0.71 0.54,2 a 6.57,6.57 0 0 1 0.54,2 0.86,0.86 0 0 1 -0.72,1 1.06,1.06 0 0 1 -0.91,-0.7 33.91,33.91 0 0 1 -1.81,-5.21 24.94,24.94 0 0 0 -0.54,-2.68 h -2.18 c -1.93,-0.09 -3.5,-0.14 -4.7,-0.14 v 8.31 c -0.13,0.94 -0.43,1.41 -0.91,1.41 -0.48,0 -0.79,-0.47 -0.9,-1.41 a 56.63,56.63 0 0 1 -0.19,-6.48 v -1.69 c -1.33,0 -3,0 -5.07,-0.14 h -1.63 a 44.91,44.91 0 0 1 -1.81,6.62 c -0.72,1.6 -1.33,2.35 -1.81,2.25 -0.48,-0.1 -0.48,-1 0,-2.67 a 55.36,55.36 0 0 0 2.36,-10.42 26.38,26.38 0 0 0 -0.55,-6.91 c -0.12,-0.37 -0.42,-1.07 -0.9,-2.11 -0.37,-0.65 -0.61,-1.08 -0.73,-1.27 a 9.76,9.76 0 0 1 -0.19,-2.41 z m 10.51,13 h -6.34 v 0.56 a 3.13,3.13 0 0 1 -0.18,0.85 1.58,1.58 0 0 1 -0.19,0.84 h 6.52 a 8.28,8.28 0 0 1 0.19,-1.41 z m -4.35,-7.33 a 1.88,1.88 0 0 0 -0.55,0.14 8,8 0 0 1 -1.62,0.15 27.49,27.49 0 0 1 0.18,5.21 h 5.25 a 22.89,22.89 0 0 1 -1.63,-2.68 c -0.73,-1.31 -0.91,-1.64 -0.54,-1 -0.37,-0.68 -0.73,-1.29 -1.09,-1.86 z m 3.44,-0.28 a 4,4 0 0 0 -0.91,0.14 11.07,11.07 0 0 1 0.55,1.13 c 0.24,0.47 0.42,0.85 0.54,1.13 a 12.33,12.33 0 0 0 1.63,3.24 14.69,14.69 0 0 0 1.63,-3.1 8.09,8.09 0 0 0 0.91,-2.4 v -0.14 z m 9.06,7.61 h -6.16 v 2.25 c 0.72,0 1.93,0 3.62,0.14 h 2.9 a 6.81,6.81 0 0 0 -0.18,-1.27 3.12,3.12 0 0 0 -0.18,-1.16 z m -0.19,-7 a 5.84,5.84 0 0 1 -1.08,-0.15 3,3 0 0 1 -1.09,-0.14 12.64,12.64 0 0 0 -1.09,2.4 l -1.08,2.11 c -0.25,0.47 -0.43,0.8 -0.55,1 0.61,0 1.45,0.05 2.54,0.14 a 12.24,12.24 0 0 1 2.35,0.14 V 398 a 15.48,15.48 0 0 1 0,-3.38 z"
           transform="translate(-237.82,-327.82)"
           id="path36"
           style="fill:#ffffff" />
      </g>
    </g>
    <a
       id="a1">
      <path
         style="font-size:18.7346px;font-family:'隶书';-inkscape-font-specification:'隶书';fill:#ffffff;stroke-width:1.14359"
         d="m 145.63061,96.764612 q 0.73182,-1.170913 1.17091,-1.024549 0.73182,0 0.87818,0.878185 0,0.146364 -0.14636,0.439092 0,0.146364 1.17091,0.878184 2.48819,1.317277 2.34183,1.463641 0,0.439092 -0.43909,0.439092 -0.87819,-0.292728 -1.61001,-0.585456 -1.31728,-0.585457 -2.19546,-1.170913 -1.17091,1.170913 -2.63455,2.049102 0.43909,0.29272 0.87818,0.29272 1.02455,-0.14636 1.75637,-0.14636 0.43909,0 0.87818,0.14636 0.14637,-0.14636 0.4391,-0.14636 0.29272,0 0.73182,0.14636 0.73182,0.4391 0.43909,1.90274 -0.14636,1.31727 -1.02455,2.04909 -0.73182,0.4391 -1.31728,0.29273 -0.58545,-0.29273 -0.43909,-0.58546 0.43909,0 0.87819,-0.29272 0.43909,-0.4391 0.58545,-1.17092 0.14637,-1.02454 -0.58545,-1.17091 -0.87819,-0.14636 -1.75637,0 -0.14637,0.14637 -0.29273,0.29273 -0.14636,0.43909 -0.14636,1.02455 0,1.02455 0.14636,1.90273 0.87818,1.31728 3.22001,0.73182 1.17091,-0.43909 1.75637,-0.87818 0.58545,0 0.43909,0.58545 -0.29273,0.73182 -1.31728,1.31728 -1.31727,0.73182 -2.92728,0.58546 -1.90273,-0.14637 -2.48819,-1.46364 -0.14636,-1.02455 -0.14636,-2.63456 0,-1.31727 -0.14637,-2.48819 -1.02454,0.58546 -1.75636,0.87819 -0.73182,0.29273 -1.31728,-0.14637 -0.43909,-0.29272 -0.29273,-0.58545 1.02455,-0.43909 2.34183,-1.170915 1.75637,-1.024549 2.92728,-2.634553 z m 6.58638,1.170912 q 0.73182,0.146364 0.87818,0.878185 0,0.146364 0,0.292728 -0.14636,0.73182 -0.14636,1.463643 v 2.63455 q 0,0.43909 -0.43909,0.58546 -0.73182,0 -0.87819,-0.4391 v -4.83001 q 0.14637,-0.585456 0.58546,-0.585456 z m 4.53729,-0.73182 q -0.14637,1.317276 -0.14637,2.634553 v 2.341823 q 0.14637,1.75637 0.14637,3.07365 -0.14637,1.90273 -2.0491,2.04909 -1.31728,0 -2.63455,-1.02454 -0.4391,-0.4391 -0.58546,-0.87819 0,-0.14636 0.14636,-0.29273 0.4391,0.29273 0.87819,0.58546 1.02455,0.43909 1.75637,0 0.43909,-0.43909 0.58545,-1.02455 0.14637,-1.46364 0.14637,-3.51274 -0.14637,-1.902729 -0.14637,-3.659098 0,-1.463641 0.4391,-1.756369 0.29272,-0.146364 0.73182,0 0.87818,0.585456 0.73182,1.463641 z m 7.75729,-1.170913 q 0.43909,-0.292728 0.87819,0 0.43909,0.292728 0.58545,1.170913 1.17091,0.146364 2.19546,0 0.4391,0 0.29273,0.585456 -0.14636,0.439092 -1.17091,0.439092 -0.43909,0.439092 -0.43909,1.463641 1.75637,0 2.04909,0.439097 0.14637,0.58545 -0.29272,0.58545 -1.46365,-0.14636 -3.22001,0 v 1.02455 q 1.75636,0 2.78091,0.14636 0.4391,0.29273 -0.14636,0.73182 -1.46364,0 -2.63455,0 v 3.51274 q 0,0.73182 -1.02455,0.73182 -0.58546,0 -0.43909,-0.73182 v -3.51274 q -1.46365,0 -2.48819,0.29273 -0.58546,0 -0.29273,-0.58545 0.43909,-0.73182 1.02455,-0.73182 0.43909,0.14636 1.75637,0.14636 v -1.02455 q -2.78092,0 -3.80547,0.43909 -0.73182,0.14637 -0.29273,-0.73182 0.58546,-0.731817 1.17091,-0.731817 0.73182,0.146364 2.0491,0.146364 0.29273,-0.878184 -0.29273,-1.610005 l -1.02455,0.146364 q -0.73182,0.146364 -0.43909,-0.585456 0.43909,-0.73182 1.02455,-0.73182 0.58546,0.292728 1.46364,0.146364 0.29273,-1.024549 0.73182,-1.170913 z m -0.14636,3.659102 q 0.73182,0.292728 1.31727,0 0.29273,-0.878184 0.29273,-1.463641 -0.87818,-0.146364 -1.75637,0 -0.14636,0.731821 0.14637,1.463641 z m -2.34183,3.805467 q 0.73182,-0.58546 1.17092,0 0.29272,0.73182 -0.29273,1.17091 -1.46364,1.17091 -3.07365,1.46364 -0.58545,0 -0.14636,-0.58545 1.31727,-0.73182 2.34182,-2.0491 z m 4.97638,-0.43909 q 0.87819,0.14636 1.02455,1.17091 1.02455,-1.61001 1.17091,-2.78092 0.14637,-2.195459 -0.29273,-3.6591 -0.29272,-1.170912 0.87819,-1.024548 0.73182,0.439092 1.31727,0.146364 0.87819,-0.292728 1.61001,-0.731821 0.43909,-0.292728 0.87818,-0.292728 0.4391,0 0.87819,0.439092 0.58545,0.439093 0,0.731821 -2.19546,0.585456 -3.80547,0.878184 -0.29273,0.146364 -0.14636,1.610005 1.31727,-0.146364 3.22001,0 2.04909,0.146364 3.22001,0.146364 -0.58546,2.195457 -1.75637,1.756367 -0.58546,-0.58545 -1.46364,-0.58545 -0.14637,2.04909 0.14636,5.12274 0.14637,1.31727 -0.87818,1.17091 -0.73182,0.14636 -0.87819,-0.73182 v -5.7082 q -0.73182,-0.14636 -1.61,0 0.14636,1.31728 -0.43909,3.07365 -1.61001,3.36637 -3.22001,1.31727 l 0.58545,-0.43909 q -0.58545,-0.43909 -1.02455,-0.87818 -0.14636,-0.4391 0.58546,-0.73182 z m 17.41732,-4.53729 h -1.17091 q -0.29273,0.731821 -0.14636,1.90273 h 1.31727 q 0.14637,0.14637 0.14637,0.4391 0,0.43909 -0.58546,0.43909 h -0.87818 q -0.14637,0.87818 0,1.75637 1.02455,-0.14637 1.90273,-0.29273 0.58546,0 0.58546,0.29273 0,0.29272 -0.14637,0.43909 -1.61,0.43909 -4.53728,1.17091 -1.17092,0.29273 -2.0491,0.43909 -0.87818,0.14637 -0.87818,-0.58545 0,-0.87819 0.87818,-1.17092 1.31728,0 2.63455,-0.14636 0.14637,-0.87818 0,-1.90273 -0.73182,0 -1.31727,0.14636 -0.4391,0 -0.4391,-0.43909 0.14637,-0.58546 0.58546,-0.87818 0.43909,0.14636 1.17091,0.14636 0.14637,-0.731821 0,-1.75637 -0.87818,-0.146364 -1.46364,0.146364 -0.73182,0.292729 -0.29273,-0.878184 0.29273,-0.73182 0.73182,-0.73182 1.90274,0.292728 4.0982,0.292728 0.29273,0.146364 0.43909,0.292728 0.29273,0.878184 -0.58546,0.878184 z m 6.58639,-0.146364 q -0.14637,1.317277 0,2.488194 1.17091,-0.14637 2.04909,0.14636 0.4391,0.29273 0,0.73182 h -2.04909 q -0.14637,1.46364 0,2.92728 3.22001,0.14637 4.68365,0.14637 -1.02455,2.34182 -2.48819,1.61 -1.31728,-0.43909 -2.34183,-0.58546 -2.19546,-0.14636 -3.80546,0.4391 -0.73182,0.14636 -0.58546,-0.58546 0.43909,-0.87818 1.02455,-1.17091 0.87818,0.14636 1.75637,0.14636 0.14636,-1.46364 0,-2.92728 -0.73182,0.14636 -1.17091,0.29273 -0.58546,0 -0.58546,-0.73182 0.14636,-0.43909 0.58546,-0.58546 0.58545,0.14637 1.17091,0.14637 0.14636,-1.170917 0,-2.488194 -0.29273,0 -0.73182,0.146364 -0.73182,0.146364 -0.73182,-0.878184 0.14636,-0.439092 0.43909,-0.585456 1.61,0.146364 3.51274,0.146364 1.46364,0.146364 1.61,0.585456 0.14637,0.439092 -0.43909,0.585456 z m -5.26911,1.170913 q 0.14636,1.902731 -0.58546,2.488191 -0.29272,-1.31728 -0.58545,-2.341827 0.14636,-0.439092 0.43909,-0.585456 0.43909,-0.146364 0.73182,0.439092 z m 1.17091,-3.659102 q 0.4391,0.439092 0.4391,1.024549 v 3.366374 q 0,1.46364 -0.14637,2.48819 0,1.46364 -1.61,3.07364 -1.02455,0.87819 -2.0491,1.02455 -1.02455,0.14637 -1.31728,-0.87818 0,-0.14637 0.73182,-0.29273 1.46364,-0.58546 2.19546,-1.31728 0.4391,-0.43909 0.73182,-1.17091 0.29273,-1.75637 0.14637,-3.366373 0.14636,-1.902733 -0.29273,-3.366373 0.29273,-1.024549 1.17091,-0.585457 z"
         id="text1"
         aria-label="创新班" />
    </a>
  </g>
</svg>
